<svg xmlns="http://www.w3.org/2000/svg" width="28.74" height="35.253" viewBox="0 0 28.74 35.253">
  <g id="apple-logo" transform="translate(-2.104)">
    <g id="Group_1147" data-name="Group 1147" transform="translate(2.104)">
      <path id="Path_39078" data-name="Path 39078" d="M18.2,0h.251a7.549,7.549,0,0,1-1.9,5.689,5.893,5.893,0,0,1-5.187,2.435,7.322,7.322,0,0,1,1.935-5.512A8.358,8.358,0,0,1,18.2,0Z" transform="translate(2.957)"/>
      <path id="Path_39079" data-name="Path 39079" d="M30.844,22.867v.07a20.511,20.511,0,0,1-2.935,5.658c-1.119,1.54-2.491,3.613-4.94,3.613-2.116,0-3.522-1.361-5.691-1.4-2.294-.037-3.556,1.138-5.653,1.433h-.715A6.388,6.388,0,0,1,7.222,29.7,22.269,22.269,0,0,1,2.1,16.89V15.313a10.331,10.331,0,0,1,4.511-8.48A7.618,7.618,0,0,1,11.73,5.649a12.866,12.866,0,0,1,2.506.718,6.92,6.92,0,0,0,2.5.751A6.012,6.012,0,0,0,18.5,6.581c1.728-.624,3.421-1.339,5.653-1a7.843,7.843,0,0,1,5.763,3.437,7.4,7.4,0,0,0-3.757,7.338A7.575,7.575,0,0,0,30.844,22.867Z" transform="translate(-2.104 3.009)"/>
    </g>
  </g>
</svg>
