<svg id="google-play" xmlns="http://www.w3.org/2000/svg" xmlns:xlink="http://www.w3.org/1999/xlink" width="31.585" height="35.184" viewBox="0 0 31.585 35.184">
  <defs>
    <linearGradient id="linear-gradient" x1="0.915" y1="17.626" x2="-0.383" y2="16.957" gradientUnits="objectBoundingBox">
      <stop offset="0" stop-color="#00a0ff"/>
      <stop offset="0.007" stop-color="#00a2ff"/>
      <stop offset="0.26" stop-color="#00beff"/>
      <stop offset="0.512" stop-color="#00d2ff"/>
      <stop offset="0.76" stop-color="#00dfff"/>
      <stop offset="1" stop-color="#00e3ff"/>
    </linearGradient>
    <linearGradient id="linear-gradient-2" x1="1.076" y1="49.373" x2="-1.305" y2="49.373" gradientUnits="objectBoundingBox">
      <stop offset="0" stop-color="#ffe000"/>
      <stop offset="0.409" stop-color="#ffbd00"/>
      <stop offset="0.775" stop-color="#ffa600"/>
      <stop offset="1" stop-color="#ff9c00"/>
    </linearGradient>
    <linearGradient id="linear-gradient-3" x1="0.862" y1="32.329" x2="-0.501" y2="30.56" gradientUnits="objectBoundingBox">
      <stop offset="0" stop-color="#ff3743"/>
      <stop offset="1" stop-color="#e30864"/>
    </linearGradient>
    <linearGradient id="linear-gradient-4" x1="-0.188" y1="35.049" x2="0.421" y2="34.259" gradientUnits="objectBoundingBox">
      <stop offset="0" stop-color="#00a06f"/>
      <stop offset="0.068" stop-color="#00a86e"/>
      <stop offset="0.476" stop-color="#00cf6e"/>
      <stop offset="0.801" stop-color="#00e76d"/>
      <stop offset="1" stop-color="#00ef6d"/>
    </linearGradient>
  </defs>
  <path id="Path_39052" data-name="Path 39052" d="M26.816,6.567a2.739,2.739,0,0,0-.633,1.922V38.742a2.738,2.738,0,0,0,.633,1.922l.1.1L43.864,23.815v-.4L26.917,6.468Z" transform="translate(-26.183 -6.024)" fill="url(#linear-gradient)"/>
  <path id="Path_39053" data-name="Path 39053" d="M289.132,182.573l-5.649-5.651v-.4l5.65-5.65.127.073,6.693,3.8c1.912,1.086,1.912,2.863,0,3.95l-6.693,3.8Z" transform="translate(-265.802 -159.13)" fill="url(#linear-gradient-2)"/>
  <path id="Path_39054" data-name="Path 39054" d="M58.221,261.779,52.443,256,35.4,273.049c.63.667,1.67.75,2.843.084l19.983-11.354" transform="translate(-34.762 -238.409)" fill="url(#linear-gradient-3)"/>
  <path id="Path_39055" data-name="Path 39055" d="M58.221,11.814,38.238.46C37.065-.206,36.025-.123,35.4.544L52.443,17.592Z" transform="translate(-34.762 0)" fill="url(#linear-gradient-4)"/>
</svg>
