<svg id="Layer_1" enable-background="new 0 0 512 512" height="512" viewBox="0 0 512 512" width="512" xmlns="http://www.w3.org/2000/svg"><path d="m509.383 261.326c-1.895-2.074-4.574-3.255-7.383-3.255h-204.32c-4.045 0-7.691 2.437-9.239 6.173s-.691 8.038 2.168 10.898l139.098 139.098c1.876 1.875 4.419 2.929 7.071 2.929s5.196-1.054 7.071-2.929c38.974-38.974 63.162-90.565 68.109-145.268.254-2.797-.681-5.572-2.575-7.646zm-72.769 131.536-114.792-114.791h168.948c-6.088 42.688-25.008 82.803-54.156 114.791zm-190.757-132.468v-221.715c0-5.523-4.478-10-10-10-63 0-122.229 24.533-166.776 69.081-44.548 44.547-69.081 103.776-69.081 166.776s24.533 122.229 69.081 166.776c44.547 44.547 103.776 69.081 166.776 69.081s122.229-24.533 166.777-69.081c1.875-1.875 2.929-4.419 2.929-7.071s-1.054-5.196-2.929-7.071zm-10 219.999c-119.024 0-215.857-96.833-215.857-215.857 0-115.675 91.453-210.39 205.857-215.628v215.628c0 2.652 1.054 5.196 2.929 7.071l152.476 152.475c-39.842 36.387-91.094 56.311-145.405 56.311zm41.215-243.537h224.911c2.809 0 5.488-1.181 7.383-3.255s2.83-4.849 2.576-7.646c-5.28-58.374-32.052-112.441-75.383-152.243-43.602-40.05-100.242-62.106-159.487-62.106-5.522 0-10 4.477-10 10v205.25c0 5.523 4.478 10 10 10zm10-205.025c104.224 4.662 189.218 81.945 203.694 185.026h-203.694zm-98.034 290.847c0 19.096-14.495 35.146-33.922 39.377l.205 8.511c.133 5.521-4.234 10.105-9.756 10.238-.082.002-.164.003-.246.003-5.411 0-9.861-4.319-9.992-9.759l-.213-8.818c-11.285-2.242-18.607-8.307-25.603-14.906-4.018-3.79-4.201-10.119-.411-14.136s10.119-4.202 14.136-.412c8.111 7.652 12.606 10.369 21.684 10.369 13.299 0 24.118-9.182 24.118-20.468s-10.819-20.467-24.118-20.467c-24.327 0-44.118-18.154-44.118-40.468 0-19.104 14.507-35.158 33.946-39.382l-.23-9.629c-.132-5.521 4.236-10.104 9.758-10.236.081-.002.163-.003.244-.003 5.412 0 9.862 4.321 9.992 9.761l.248 10.358c10.596 2.56 23.148 8.672 28.786 17.25 3.033 4.616 1.75 10.816-2.866 13.849-4.615 3.032-10.816 1.749-13.849-2.866-2.703-4.114-15.194-9.57-21.911-9.57-13.299 0-24.118 9.182-24.118 20.467 0 11.286 10.819 20.468 24.118 20.468 24.327.001 44.118 18.155 44.118 40.469z"/></svg>