<svg id="Layer_1" height="512" viewBox="0 0 91 91" width="512" xmlns="http://www.w3.org/2000/svg" data-name="Layer 1"><path d="m89.4 71.71c-2.3-6-5.33-6.92-5.91-7l-8.69-1.28-9.47-9.43a30.77 30.77 0 0 0 3-6.88h6.49a1.75 1.75 0 0 0 1.75-1.75v-14.3a1.75 1.75 0 0 0 -1.75-1.75h-6.48a30.87 30.87 0 0 0 -2.41-5.83l4.59-4.58a1.75 1.75 0 0 0 0-2.47l-10.09-10.09a1.72 1.72 0 0 0 -1.23-.51 1.74 1.74 0 0 0 -1.2.51l-4.58 4.58a31.51 31.51 0 0 0 -5.83-2.4v-6.53a1.75 1.75 0 0 0 -1.79-1.71h-14.26a1.75 1.75 0 0 0 -1.75 1.71v6.53a31.14 31.14 0 0 0 -5.79 2.4l-4.62-4.58a1.79 1.79 0 0 0 -2.47 0l-10.09 10.09a1.75 1.75 0 0 0 0 2.47l4.59 4.58a30.34 30.34 0 0 0 -2.41 5.83h-6.49a1.75 1.75 0 0 0 -1.75 1.75v14.26a1.76 1.76 0 0 0 1.75 1.75h6.49a30.79 30.79 0 0 0 2.41 5.82l-4.59 4.59a1.75 1.75 0 0 0 0 2.47l10.08 10.04a1.74 1.74 0 0 0 2.48 0l4.62-4.54a30.84 30.84 0 0 0 5.83 2.4v6.5a1.75 1.75 0 0 0 1.75 1.75h14.22a1.75 1.75 0 0 0 1.75-1.75v-6.5a30.24 30.24 0 0 0 7-3.08 1.14 1.14 0 0 0 .3-.23l9.35 9.35c.16 3.24.16 7.64.16 7.75 0 1.07.61 2.4 9.12 8.69a1.74 1.74 0 0 0 1 .35h3.36a1.76 1.76 0 0 0 1.52-.88 1.73 1.73 0 0 0 0-1.76l-3.45-5.82c-.13-.43-.51-2.32 1.84-4 2.91-2 4-.77 4.75.07a65.9 65.9 0 0 1 3.73 5.89 1.74 1.74 0 0 0 2.95.12c.16-.17 3.25-4.78.22-12.6zm-44-6.88a1.76 1.76 0 0 0 -1.33 1.7v6.08h-10.78v-6.08a1.75 1.75 0 0 0 -1.29-1.7 27.34 27.34 0 0 1 -7.4-3 1.76 1.76 0 0 0 -2.13.26l-4.29 4.29-7.61-7.61 4.29-4.29a1.76 1.76 0 0 0 .27-2.14 27 27 0 0 1 -3.13-7.44 1.73 1.73 0 0 0 -1.69-1.32h-6.05v-10.76h6.08a1.74 1.74 0 0 0 1.66-1.33 27.54 27.54 0 0 1 3.06-7.39 1.76 1.76 0 0 0 -.24-2.1l-4.28-4.29 7.6-7.61 4.29 4.29a1.76 1.76 0 0 0 2.14.27 27.17 27.17 0 0 1 7.43-3.1 1.75 1.75 0 0 0 1.33-1.7v-6.07h10.72v6.07a1.75 1.75 0 0 0 1.33 1.7 27.17 27.17 0 0 1 7.39 3.06 1.76 1.76 0 0 0 2.14-.27l4.29-4.29 7.6 7.61-4.28 4.33a1.74 1.74 0 0 0 -.27 2.13 27.49 27.49 0 0 1 3.06 7.4 1.74 1.74 0 0 0 1.69 1.29h6.08v10.76h-6.08a1.75 1.75 0 0 0 -1.7 1.32 26.9 26.9 0 0 1 -2.55 6.48l-5.67-5.67a19.91 19.91 0 0 0 -2.53-19.48 20.48 20.48 0 0 0 -3.11-3.23 1.75 1.75 0 1 0 -2.25 2.68 16.78 16.78 0 0 1 2.56 2.7 16.29 16.29 0 0 1 2.58 14.62l-2.15-2.2s-1.18-8.64-1.24-8.68c-.13-.58-1.08-3.61-7-5.92-7.82-3-12.43.06-12.63.2a1.76 1.76 0 0 0 -.75 1.51 1.73 1.73 0 0 0 .87 1.44 63.7 63.7 0 0 1 5.89 3.73c1.08.93 2 2.05.08 4.75-1.64 2.33-3.52 2-4 1.83l-5.81-3.45a1.76 1.76 0 0 0 -2.65 1.51v3.35a1.69 1.69 0 0 0 .35 1c7 9.48 7.93 9.28 9 9.08.61-.08 4.22 0 7.47.21l2.24 2.32a16.15 16.15 0 0 1 -5.32.9 16.38 16.38 0 0 1 0-32.76 1.75 1.75 0 0 0 0-3.5 19.88 19.88 0 0 0 0 39.76 19.71 19.71 0 0 0 8-1.69l5.65 5.61a27.46 27.46 0 0 1 -6.95 2.83zm41.82 14.17a27.91 27.91 0 0 0 -2-3c-3.22-3.75-6.9-2.43-9.42-.66-3.92 2.76-3.7 6.6-3 8.24 0 .09 1.86 3.17 1.86 3.17a70 70 0 0 1 -6.66-5.51c0-1.61-.17-5.24-.33-8.24a1.74 1.74 0 0 0 -.51-1.14l-23.45-23.41a1.7 1.7 0 0 0 -1.14-.51c-2.47-.13-6.46-.32-8.24-.26a67 67 0 0 1 -5.51-6.68s3.08 1.85 3.18 1.88c1.65.66 5.48.88 8.24-3 1.78-2.52 3.1-6.19-.66-9.42a29.55 29.55 0 0 0 -3-2 14.37 14.37 0 0 1 6 1.07c4 1.52 4.8 3.23 4.88 3.4l1.27 9a1.8 1.8 0 0 0 .5 1l23.51 23.39a1.73 1.73 0 0 0 1 .49l9 1.27c.32.15 2 1.06 3.44 4.89a14.29 14.29 0 0 1 1.04 6.03z" fill="rgb(0,0,0)"/></svg>