<svg clip-rule="evenodd" fill-rule="evenodd" height="512" stroke-linejoin="round" stroke-miterlimit="2" viewBox="0 0 48 48" width="512" xmlns="http://www.w3.org/2000/svg"><g id="Icon"><path d="m27 36c0-1.656-1.344-3-3-3s-3 1.344-3 3v6c0 1.656 1.344 3 3 3s3-1.344 3-3zm-2 0v6c0 .552-.448 1-1 1s-1-.448-1-1v-6c0-.552.448-1 1-1s1 .448 1 1zm-5.706 3.296c-5.049-1.554-9.036-5.541-10.59-10.59-.162-.528-.722-.824-1.25-.662-.527.163-.824.723-.661 1.25 1.747 5.68 6.233 10.166 11.913 11.913.527.163 1.087-.134 1.25-.661.162-.528-.134-1.088-.662-1.25zm20-10.585c-1.554 5.047-5.541 9.032-10.588 10.585-.528.162-.824.722-.662 1.25.163.527.723.824 1.25.661 5.678-1.747 10.163-6.23 11.912-11.907.162-.528-.134-1.088-.662-1.25-.527-.163-1.087.133-1.25.661zm-4.217-.091c-1.217 2.912-3.55 5.243-6.462 6.459-.51.213-.75.799-.538 1.308.213.51.799.751 1.308.538 3.397-1.418 6.118-4.138 7.538-7.534.212-.509-.028-1.096-.537-1.308-.51-.213-1.096.027-1.309.537zm-15.692 6.459c-2.914-1.216-5.248-3.55-6.464-6.464-.213-.51-.799-.75-1.308-.538-.51.213-.751.799-.538 1.308 1.419 3.399 4.141 6.121 7.54 7.54.509.213 1.095-.028 1.308-.538.212-.509-.028-1.095-.538-1.308zm4.783-17.634-4 6c-.205.307-.224.702-.05 1.027s.513.528.882.528h4.131s-2.963 4.445-2.963 4.445c-.306.46-.182 1.081.277 1.387.46.306 1.081.182 1.387-.277l4-6c.205-.307.224-.702.05-1.027s-.513-.528-.882-.528h-4.131s2.963-4.445 2.963-4.445c.306-.46.182-1.081-.277-1.387-.46-.306-1.081-.182-1.387.277zm17.832 9.555c1.656 0 3-1.344 3-3s-1.344-3-3-3h-6c-1.656 0-3 1.344-3 3s1.344 3 3 3zm-30 0c1.656 0 3-1.344 3-3s-1.344-3-3-3h-6c-1.656 0-3 1.344-3 3s1.344 3 3 3zm30-2h-6c-.552 0-1-.448-1-1s.448-1 1-1h6c.552 0 1 .448 1 1s-.448 1-1 1zm-30 0h-6c-.552 0-1-.448-1-1s.448-1 1-1h6c.552 0 1 .448 1 1s-.448 1-1 1zm-3.296-5.706c1.554-5.049 5.541-9.036 10.59-10.59.528-.162.824-.722.662-1.25-.163-.527-.723-.824-1.25-.661-5.68 1.747-10.166 6.233-11.913 11.913-.163.527.134 1.087.661 1.25.528.162 1.088-.134 1.25-.662zm20.002-10.59c5.049 1.554 9.036 5.541 10.59 10.59.162.528.722.824 1.25.662.527-.163.824-.723.661-1.25-1.747-5.68-6.233-10.166-11.913-11.913-.527-.163-1.087.134-1.25.661-.162.528.134 1.088.662 1.25zm-15.785 10.681c1.216-2.912 3.547-5.245 6.459-6.462.51-.213.75-.799.537-1.309-.212-.509-.799-.749-1.308-.537-3.396 1.42-6.116 4.141-7.534 7.538-.213.509.028 1.095.538 1.308.509.212 1.095-.028 1.308-.538zm15.699-6.462c2.912 1.217 5.243 3.55 6.459 6.462.213.51.799.75 1.308.538.51-.213.751-.799.538-1.308-1.418-3.397-4.138-6.118-7.534-7.538-.509-.212-1.096.028-1.308.537-.213.51.027 1.096.537 1.309zm-1.62-6.923c0-1.656-1.344-3-3-3s-3 1.344-3 3v6c0 1.656 1.344 3 3 3s3-1.344 3-3zm-2 0v6c0 .552-.448 1-1 1s-1-.448-1-1v-6c0-.552.448-1 1-1s1 .448 1 1z"/></g></svg>