<svg xmlns="http://www.w3.org/2000/svg" xmlns:xlink="http://www.w3.org/1999/xlink" width="237" height="218" viewBox="0 0 237 218">
  <defs>
    <clipPath id="clip-Snippit_Web_Materials_Marketpalce_st54.335xd_assets-3">
      <rect width="237" height="218"/>
    </clipPath>
  </defs>
  <g id="Snippit_Web_Materials_Marketpalce_st54.335xd_assets-3" data-name="Snippit_Web Materials_Marketpalce_st54.335xd_assets-3" clip-path="url(#clip-Snippit_Web_Materials_Marketpalce_st54.335xd_assets-3)">
    <rect width="237" height="218" fill="#fff"/>
    <g id="Layer_1" data-name="Layer 1" transform="translate(51 53)">
      <g id="Group_2016" data-name="Group 2016" transform="translate(0 0)">
        <path id="Path_39590" data-name="Path 39590" d="M1.8,77.983c.32,0,.463-.267.463-.783,0-.623.516-.889,1.566-.783.32,0,.569-.267.783-.783a7.688,7.688,0,0,1,.16-1.174,9.649,9.649,0,0,1,.463-1.637c.409-1.459.712-2.473.854-3.06a6.05,6.05,0,0,0,.231-1.637,9.616,9.616,0,0,0,.623-1.886,4.992,4.992,0,0,0,.623-2.028l.32-2.188a2.857,2.857,0,0,1,.463-1.405A2.373,2.373,0,0,1,8.512,60a3.433,3.433,0,0,0,.16-1.1c.213-1.05.374-1.565.463-1.565A3.009,3.009,0,0,0,9.6,55.3c.107-.516.178-.961.231-1.334a1.416,1.416,0,0,1,.231-.712c.213,0,.32-.32.32-.943a2.7,2.7,0,0,1,.32-1.245,1.225,1.225,0,0,0,.231-.623,2.725,2.725,0,0,1,.231-.783,1.937,1.937,0,0,1,.463-1.405.9.9,0,0,0,.16-.623c-.32,0-.32-.16,0-.463a2.983,2.983,0,0,0,.551-1.334,7.222,7.222,0,0,0,.231-1.334.283.283,0,0,1,.32-.32c.213,0,.32-.374.32-1.1a5.688,5.688,0,0,1,.463-2.188q.16-.48.32-1.014a3.4,3.4,0,0,0,.16-.854c.107-.213.213-.409.32-.623s.213-.409.32-.623a1.046,1.046,0,0,0,.32-.783.886.886,0,0,1,.32-.943c.409-.409.516-.729.32-.943a1.324,1.324,0,0,1,.463-.783,2.146,2.146,0,0,0,.623-1.565c0-.729.107-1.1.32-1.1a.636.636,0,0,0,.16-.463c-.213-.213-.107-.676.32-1.405a3.3,3.3,0,0,0,.463-.943,2.551,2.551,0,0,0,.16-.623,3.263,3.263,0,0,1,.623-1.245,2.569,2.569,0,0,0,.463-1.245c0-.3.267-.569.783-.783.409-.213.516-.409.32-.623-.213,0-.107-.32.32-.943.409-.516.516-.889.32-1.1v-.32l.32-.32a5.05,5.05,0,0,1,.32-.551.755.755,0,0,0,.16-.391,1.394,1.394,0,0,1,.463-.943,1.479,1.479,0,0,0,.463-1.1,3.378,3.378,0,0,1,.712-1.334,10.874,10.874,0,0,1,1.014-1.334,3.666,3.666,0,0,1,1.014-2.028,4.565,4.565,0,0,1,1.494-1.405c.409-.107.516-.374.32-.783-.213-.213,0-.658.623-1.334s1.1-1.014,1.405-1.014c.213,0,.463-.267.783-.783A1.629,1.629,0,0,1,31.585,7.7a2.916,2.916,0,0,0,.943-.16,5.862,5.862,0,0,0,.783-.32,1.351,1.351,0,0,1,.623-.16h.623a.628.628,0,0,0,.783-.32c.107-.409.374-.409.783,0s.676.463.783.16c.623-.409,1.05-.053,1.245,1.1A1.964,1.964,0,0,0,38.772,9.4c.409.107.623.463.623,1.1a3.857,3.857,0,0,0,.391,1.637c.267.569.5.854.712.854v.16c.107.107.107.32,0,.623-.213.516-.16.783.16.783q.32,0,.16.16a.873.873,0,0,0,.16.623c.32,0,.374.213.16.623s-.16.623.16.623c.107,0,.178.231.231.712.053.463.125,1.014.231,1.637.213,1.459.32,2.33.32,2.58a1.6,1.6,0,0,0,.16.712,3.08,3.08,0,0,1,.32,1.405V25.04a15.092,15.092,0,0,0,.16,2.188c.32,1.672.32,2.668,0,2.971-.107.409-.053.623.16.623.107,0,.16.267.16.783-.213.409-.213.623,0,.623.32,0,.391.5.231,1.494s-.391,1.6-.712,1.8c-.409.32-.374.463.16.463s.729.409.623,1.245c0,.729.018,1.726.071,2.971s.107,2.473.16,3.682.125,2.74.231,4.625v.943a4.516,4.516,0,0,0-.32,1.726,1.746,1.746,0,0,0,.32,1.245c.213.107.16.32-.16.623-.107.213-.053.516.16.943a2.424,2.424,0,0,1-.16,1.886,5.317,5.317,0,0,0-.32,1.174.863.863,0,0,0,.32.551c.32.107.32.409,0,.943a1.291,1.291,0,0,0,0,1.245,11.264,11.264,0,0,1,.32,1.957,29.242,29.242,0,0,1,.16,3.131c0,1.1-.018,2.117-.071,3.06a6.139,6.139,0,0,1-.231,1.726c-.32.427-.374.623-.16.623.409-.213.676,1.352.783,4.7.107.836.178,1.726.231,2.668s.071,1.672.071,2.188v1.494a3.745,3.745,0,0,1-.16,1.174c-.107.516-.053.836.16.943.32.213.409,1.05.32,2.508a5.416,5.416,0,0,0,.16,1.566v.623c.107,0,.178.267.231.783s.071,1.21.071,2.028v4.625a12.663,12.663,0,0,1-.16,2.117,2.062,2.062,0,0,1-.463,1.334,2.2,2.2,0,0,1-.943.712q-.16,0-.16.32c.213.32.071.391-.391.231a3.021,3.021,0,0,1-1.174-.712A1.853,1.853,0,0,0,41,98.957a.628.628,0,0,1-.783-.32,2.725,2.725,0,0,1-.231-.783,1.372,1.372,0,0,0-.391-.783c-.427-.943-.516-2.757-.32-5.479a2.618,2.618,0,0,0-.623-1.886c-.107,0-.213-.267-.32-.783a9.432,9.432,0,0,1-.16-1.886c-.107-1.245-.178-2.366-.231-3.362s-.178-2.277-.391-3.843c-.107-1.352.107-2.081.623-2.188.943-.32.961-.569.071-.783a7.359,7.359,0,0,0-3.06,0c-1.886.32-2.971.374-3.291.16-.427-.213-.623-.213-.623,0s-.213.32-.623.32c-.32,0-.463.107-.463.32,0,.32-.213.374-.623.16a1,1,0,0,0-.783-.231c-.213.053-.836.178-1.886.391s-1.566.374-1.566.463a7.387,7.387,0,0,1-1.957.943,19.416,19.416,0,0,1-2.419.783,7.286,7.286,0,0,0-1.014.071,3.025,3.025,0,0,1-.551.071,4.459,4.459,0,0,1-1.494.071c-.569-.053-.818-.125-.712-.231.213-.213-.32-.32-1.566-.32-1.156.213-1.726.374-1.726.463a1.513,1.513,0,0,1-1.1.32,1.746,1.746,0,0,0-1.245.32.7.7,0,0,1-.783.16c-.213-.107-.5.071-.854.551-.374.463-.445.854-.231,1.174.107,0,.125.053.071.16a.832.832,0,0,1-.391.32,1.154,1.154,0,0,0,0,1.726c.213.32.16.729-.16,1.245a9.261,9.261,0,0,0-.32,2.811c-.107.943-.213,1.743-.32,2.419s-.267,1.69-.463,3.06c0,.32-.036.676-.071,1.1a8.738,8.738,0,0,0-.071,1.1,7.285,7.285,0,0,1-.071,1.014,3.025,3.025,0,0,0-.071.551,2.512,2.512,0,0,0-.16,1.245v2.508c0,2.081-.125,3.344-.391,3.754s-.961.516-2.117.32a8.171,8.171,0,0,1-.943-.623,5.049,5.049,0,0,1-.551-.32.958.958,0,0,0-.551-.16c-.516,0-.783-.16-.783-.463,0-.409-.374-.889-1.1-1.405-.943-.836-1.156-2.615-.623-5.319A13.306,13.306,0,0,0,.9,95.363a10.2,10.2,0,0,0,.231-1.245,3.15,3.15,0,0,1,.231-.943c.213-.623.267-1,.16-1.1a2.916,2.916,0,0,1,.16-.943,1.471,1.471,0,0,0,.391-.854,7.125,7.125,0,0,0,.071-1.014q.16-1.094.32-2.508a3.616,3.616,0,0,1,.463-1.726,2.4,2.4,0,0,0,.16-1.014,1.393,1.393,0,0,0-.16-.854.582.582,0,0,0-.463.16c0,.214-.374.16-1.1-.16A2.242,2.242,0,0,1,.346,81.985a3.287,3.287,0,0,1-.32-1.726,3.252,3.252,0,0,1,.551-1.565,1.467,1.467,0,0,1,1.245-.712ZM11.518,72.5c0,1.459.676,1.672,2.028.623a3.653,3.653,0,0,1,1.566-.783,2.785,2.785,0,0,1,.712-.231,1.067,1.067,0,0,0,.551-.231A5.751,5.751,0,0,1,18.26,71.1c1.05-.409,1.566-.676,1.566-.783s.213-.16.623-.16a1.046,1.046,0,0,0,.783-.32,2.858,2.858,0,0,1,1.637-1.1c.889-.32,1.494-.356,1.8-.16a.974.974,0,0,0,1.1-.071,1.191,1.191,0,0,0,.623-1.014c0-.213.445-.445,1.334-.712a3.017,3.017,0,0,1,1.637-.231c.32.32.463.267.463-.16.107-.213.623-.107,1.566.32.943.409,1.405.783,1.405,1.1,0,.409-.16.623-.463.623-.213.107-.213.32,0,.623a.894.894,0,0,0,.783.463q.16,0,.16.32-.16.32.16.32H35q1.254,0,1.494-.32a4.748,4.748,0,0,0,.231-2.028V64.516c0-.516.107-.783.32-.783a.283.283,0,0,0,.32-.32c0-.213-.16-.32-.463-.32s-.427-.16-.32-.463v-.854a6.88,6.88,0,0,0-.16-1.334c-.213-.943-.16-1.566.16-1.886.213-.213.16-.409-.16-.623-.213-.409-.267-.676-.16-.783a1.483,1.483,0,0,0,.231-.783,10.42,10.42,0,0,0,.071-1.334V53.788c0-.356-.053-.551-.16-.551s-.16-.391-.16-1.174V46.815a3.078,3.078,0,0,1,.16-1.405c.32-.32.32-.463,0-.463-.213,0-.338-.267-.391-.783s-.071-1.672-.071-3.451c0-1.156-.018-2.4-.071-3.754s-.125-2.4-.231-3.131a10.585,10.585,0,0,1,.16-2.811.383.383,0,0,0,0-.623q-.16,0-.32-.854a10.214,10.214,0,0,1-.16-1.886c0-.694.018-1.334.071-1.957a2.425,2.425,0,0,1,.231-1.1.5.5,0,0,0-.16-.623c-.32-.213-.463-.889-.463-2.028,0-2.295-.036-4.2-.071-5.711a6.5,6.5,0,0,0-.231-2.277c-.213,0-.516.267-.943.783a2.219,2.219,0,0,0-.623,1.245,4.58,4.58,0,0,1-.463,1.334,18.959,18.959,0,0,1-1.1,2.028c-.427.676-.818,1.3-1.174,1.886a3.4,3.4,0,0,1-.854,1.014c-.427.213-.463.463-.16.783.32.213.32.463,0,.783-.213.32-.623,1.067-1.245,2.277-.623,1.192-1.05,2.01-1.245,2.419a.582.582,0,0,1-.16.463v.463l-.16.16a.4.4,0,0,0-.231.071c-.053.053-.178.071-.391.071-.409.107-.516.32-.32.623.213.32.16.729-.16,1.245s-.427.836-.32.943c.213.213.107.569-.32,1.1-.427.516-.783.783-1.1.783-.427,0-.623.071-.623.231s.16.338.463.551c.213.107.32.178.32.231a4.086,4.086,0,0,1-.32.712c-.107.213-.213.427-.32.623a1.268,1.268,0,0,0-.16.463c0,.32-.107.463-.32.463s-.32.267-.32.783a1.288,1.288,0,0,1-.32.943c-.213,0-.32.213-.32.623a7.611,7.611,0,0,1-.623,2.028c-.213.427-.391.836-.551,1.245a2.817,2.817,0,0,0-.231.943,1.394,1.394,0,0,1-.463.943c-.3.32-.427.569-.32.783a1.58,1.58,0,0,1-.463,1.1c-.107.213-.213.445-.32.712a1.925,1.925,0,0,0-.16.712,2.725,2.725,0,0,0-.231.783,2.725,2.725,0,0,1-.231.783l-.32.943a9.866,9.866,0,0,1-.551,1.726,3.65,3.65,0,0,1-.712.943c-.32.32-.427.569-.32.783.213.107.125.676-.231,1.726-.374,1.05-.818,2.348-1.334,3.914a2.315,2.315,0,0,0-.32.943,7.97,7.97,0,0,1-.16.943,10.427,10.427,0,0,1-.463,1.565,10.931,10.931,0,0,0-.463,1.726,6.372,6.372,0,0,0-.16,1.1,6.172,6.172,0,0,1-.783,2.348,8.566,8.566,0,0,0-.463,1.405c-.107.409-.107.676,0,.783a.283.283,0,0,1-.32.32c-.107,0-.16.427-.16,1.245Z" transform="translate(-0.013 5.003)"/>
        <path id="Path_39591" data-name="Path 39591" d="M28.563,67.222c.32-.516.374-.943.16-1.245a3.3,3.3,0,0,1-.071-2.028,5.622,5.622,0,0,1,.551-2.028,9.16,9.16,0,0,1,.32-1.566,9.519,9.519,0,0,1,.32-2.348,6.791,6.791,0,0,1,.071-1.014,6.217,6.217,0,0,0,.071-.854,2.452,2.452,0,0,0,.32-1.1c.623-1.05.729-4.376.32-10.016a16.681,16.681,0,0,0-.071-1.8,13.153,13.153,0,0,1-.071-1.494c0-.534.018-1.174.071-1.957s.071-1.8.071-3.06c.107-1.886.213-3.184.32-3.914s.267-1.1.463-1.1.32-.16.32-.463.445-.409,1.334-.32a2.539,2.539,0,0,1,1.8.783c.409.409.676.623.783.623.213,0,.391.16.551.463a.635.635,0,0,1-.071.783c0,.107-.036.391-.071.854a14.778,14.778,0,0,0-.071,1.637,29.287,29.287,0,0,1,.071,3.594,4.523,4.523,0,0,1-.231,1.405c-.107.516.018.765.391.712.356-.053.658-.338.854-.854.107-.409.836-.783,2.188-1.1q.774-.16,1.334-.32c.374-.107.551-.213.551-.32a3.443,3.443,0,0,1,2.508-.783A10.4,10.4,0,0,1,47.4,39.1c1.245.463,1.886,1.121,1.886,1.957,0,.409.16.569.463.463.213-.107.5.053.854.463a1.863,1.863,0,0,1,.551,1.245c0,.32.107.463.32.463s.32.267.32.783.107.783.32.783a1.26,1.26,0,0,1,.32.943c0,.623.16.943.463.943.213,0,.267.214.16.623a.7.7,0,0,0,.16.783c.32.214.783,2.081,1.405,5.639a.867.867,0,0,1-.16,1.1q-.32.16,0,.32c.623,0,.836.623.623,1.886a.888.888,0,0,0,.32.623,2.093,2.093,0,0,1,.32,1.405c0,.836.053,1.245.16,1.245.107.107.16.463.16,1.1-.213.623-.16.943.16.943s.356.267.16.783c0,.729.053,1.1.16,1.1a.977.977,0,0,1,.391,1.014,3,3,0,0,1-.712,1.494,3.866,3.866,0,0,0-.623,1.1h-.32a1.237,1.237,0,0,1-.783.16,3.078,3.078,0,0,0-1.405.16c-.213.214-.5.053-.854-.463a1.7,1.7,0,0,1-.391-1.405c.213-.623.16-.943-.16-.943s-.463-.32-.463-.943a3.065,3.065,0,0,0-1.1-2.028c-1.565-1.566-2.348-2.757-2.348-3.594,0-.623-.053-.943-.16-.943-.213,0-.338-.231-.391-.712-.053-.463-.178-1.441-.391-2.9a14.378,14.378,0,0,0-.463-1.886,2.051,2.051,0,0,0-.071-.391.7.7,0,0,1,.071-.551c0-.32-.107-.463-.32-.463-.427,0-.463-.16-.16-.463,0-.32-.053-.463-.16-.463-.213,0-.32-.32-.32-.943a1.542,1.542,0,0,0-.32-1.1c-.213,0-.32-.213-.32-.623a1.411,1.411,0,0,0-.783-1.245,2.945,2.945,0,0,0-1.566-.463c-.729,0-1.156.213-1.245.623a2.816,2.816,0,0,1-.463.623,1.736,1.736,0,0,1-.783.462c-.516.32-.783.623-.783.943.213.32.053.623-.463.943a1.48,1.48,0,0,0-.463,1.1,4.219,4.219,0,0,1-.783,1.886,9.091,9.091,0,0,0-.551,1.334,8.222,8.222,0,0,1-.391,1.014,1.542,1.542,0,0,1-.32,1.1c0,.213-.036.712-.071,1.494-.053.783-.071,1.743-.071,2.9v5.942a4.459,4.459,0,0,0-.071,1.494,15.1,15.1,0,0,0,.231,1.637,4.828,4.828,0,0,1,0,2.508c-.32.409-.32.729,0,.943.213.213.107.427-.32.623-.516.213-.783.213-.783,0-.516-.516-.783-.409-.783.32,0,.427-.071.623-.231.623a4.281,4.281,0,0,1-1.174-.463l-.943-.32c-.213,0-.427-.214-.623-.623-.107-.409-.267-.623-.463-.623q-.32.32-.854-.16a1.275,1.275,0,0,1-.551-.943c0-.516-.16-.783-.463-.783s-.5-.231-.551-.712a2.322,2.322,0,0,1,.231-1.334c.32-.409.32-.623,0-.623-.427,0-.427-.267,0-.783Z" transform="translate(22.062 24.054)"/>
        <path id="Path_39592" data-name="Path 39592" d="M47.618,80.64a13.489,13.489,0,0,0,.623-2.188.611.611,0,0,1,.463-.623,1.26,1.26,0,0,0,.32-.943c-.107-.213-.107-.374,0-.463.213,0,.551-.463,1.014-1.405s.747-1.512.854-1.726a5.628,5.628,0,0,0,.943-1.405c.516-.836.961-1.53,1.334-2.117.356-.569.8-1.227,1.334-1.957.32-.32.658-.676,1.014-1.1.374-.409.658-.729.854-.943.516-.32.783-.623.783-.943a2.491,2.491,0,0,1,.551-.854,19.758,19.758,0,0,1,1.405-1.566c.569-.569,1.1-1.067,1.566-1.494.463-.409.747-.623.854-.623a.283.283,0,0,0,.32-.32c0-.213.409-.712,1.245-1.494a12.814,12.814,0,0,1,2.028-1.637.894.894,0,0,0,.463-.783c.213,0,.516-.213.943-.623a1.767,1.767,0,0,1,1.1-.623c.32,0,.463-.107.463-.32s.356-.463,1.1-.783a1.8,1.8,0,0,0,.391-.231,1.8,1.8,0,0,1,.391-.231.461.461,0,0,0,.32-.16c0-.107.267-.267.783-.463.623-.213.943-.374.943-.463s.409-.356,1.245-.783a5.708,5.708,0,0,0,1.1-.391l.783-.391a3.028,3.028,0,0,1,1.405-.32,2.089,2.089,0,0,0,1.1-.16c0-.213.267-.32.783-.32a20.265,20.265,0,0,0,4.7-1.726,2.569,2.569,0,0,1,1.245-.463.625.625,0,0,0,.623-.463,1.321,1.321,0,0,1,.943-.463,1.752,1.752,0,0,0,1.405-.854,4.341,4.341,0,0,0,.783-1.8,25.5,25.5,0,0,1,.071-2.668.764.764,0,0,1,.391-.623c.213-.213.213-.463,0-.783a1.154,1.154,0,0,1-.32-.854,13.363,13.363,0,0,1,.32-2.117c.107-.729.213-1.441.32-2.117a10.681,10.681,0,0,0,.16-1.494c.516-3.967.889-6,1.1-6.1a3.7,3.7,0,0,0,.16-1.566,5.653,5.653,0,0,0,.16-1.405,3.918,3.918,0,0,1,.16-1.245c.107-.836.178-1.726.231-2.668s.125-2.295.231-4.074c.107-.729.178-1.494.231-2.277a15.221,15.221,0,0,1,.231-1.957,15.94,15.94,0,0,1,.463-3.754,6.6,6.6,0,0,1,.16-1.1,7.8,7.8,0,0,0,.16-1.566Q92.99.479,94.565.959c.409.107.569-.053.463-.463s.213-.569.943-.463c.943.32,1.405.569,1.405.783s.213.516.623.943a3.862,3.862,0,0,1,.463,2.419,8.084,8.084,0,0,1-.32,2.74q-.32.32.16.32c.32,0,.356.16.16.463,0,.213-.036.551-.071,1.014-.053.463-.125.961-.231,1.494-.107.516-.178,1.014-.231,1.494a9.586,9.586,0,0,0-.071,1.014,4.007,4.007,0,0,0-.231,1.245c-.053.623-.071,1.3-.071,2.028s-.018,1.619-.071,2.668-.125,1.975-.231,2.811c0,.836-.018,1.832-.071,2.971-.053,1.156-.071,2.135-.071,2.971a15.161,15.161,0,0,1-.32,2.277,1.945,1.945,0,0,1-.463.854c-.32.32-.32.463,0,.463.214,0,.338.125.391.391a7.1,7.1,0,0,1-.071,1.637c0,.516-.036,1.156-.071,1.886-.053.729-.071,1.352-.071,1.886a8.821,8.821,0,0,1-.463,2.028c-.32.213-.267.374.16.463.32.213.374.729.16,1.566,0,.623-.018,1.6-.071,2.9s-.125,2.668-.231,4.074-.214,2.722-.32,3.914a13.4,13.4,0,0,1-.32,2.277c-.214.409-.214.676,0,.783.623.107.676.427.16.943a2.9,2.9,0,0,0-.391,1.637c-.053.889.018,1.334.231,1.334q.16,0,.16.854v1.957c0,.729-.036,1.459-.071,2.188a7.173,7.173,0,0,1-.231,1.566c-.213.729-.213,1.192,0,1.405q.48.48.16,2.508v4.928c0,2.242.053,4.625.16,7.116q.16,3.763.32,6.885c.107,2.081.213,3.5.32,4.234v.943a2.195,2.195,0,0,1-.16.943c-.214.516-.267.836-.16.943.107,0,.231.374.391,1.1a15.946,15.946,0,0,1,.32,2.419q.08,1.334.16,2.508a5.264,5.264,0,0,1-.071,1.637c0,.623.053.943.16.943.32,0,.356.463.16,1.405,0,1.05.053,1.566.16,1.566.213,0,.285.409.231,1.245s-.178,1.3-.391,1.405c-.427.213-.516.409-.32.623,0,.516-.623.676-1.886.463a1.491,1.491,0,0,1-.943-.783.719.719,0,0,0-.783-.463c-.409,0-.729-1.05-.943-3.131a5.2,5.2,0,0,0-.32-2.188V103a1.417,1.417,0,0,0-.16-1.1,18.852,18.852,0,0,1-.712-2.419,26.886,26.886,0,0,1-.552-2.9,7.8,7.8,0,0,1-.16-1.566,2.706,2.706,0,0,0-.16-1.1,2.4,2.4,0,0,1-.16-1.014,3.744,3.744,0,0,0-.16-1.174,6.18,6.18,0,0,0-.16-1.334,4.9,4.9,0,0,0-.32-1.014,5.644,5.644,0,0,1-.391-1.637c-.053-.569-.125-1.388-.231-2.419,0-1.886-.623-2.081-1.886-.623l-.783.783a6.1,6.1,0,0,1-.943.783c-.836.623-1.3,1-1.405,1.1a1.479,1.479,0,0,1-1.1.463c-.32,0-.463.107-.463.32,0,.32-.374.569-1.1.783a5.5,5.5,0,0,0-.783.463.461.461,0,0,0-.32.16q0,.32-1.494.854a7.035,7.035,0,0,1-2.277.551,2.012,2.012,0,0,0-1.174,0c-.16.107-.178.267-.071.463.213.213.071.445-.391.712a2.932,2.932,0,0,1-1.494.391.958.958,0,0,0-.551.16,5.048,5.048,0,0,1-.551.32c-.107.213-.427.32-.943.32-.516-.32-.783-.267-.783.16a2.093,2.093,0,0,1-1.405.32,3.979,3.979,0,0,0-2.028.463,10.156,10.156,0,0,1-1.494.32c-.676.107-1.405.178-2.188.231a13.983,13.983,0,0,1-2.117,0,3.886,3.886,0,0,1-1.245-.231.931.931,0,0,0-.943.16c-.623.623-1.192.569-1.726-.16a.922.922,0,0,0-.943-.16c-.409.32-.943.267-1.565-.16a4.906,4.906,0,0,0-1.405-.32c0-.32-.516-.569-1.566-.783a4.144,4.144,0,0,0-.551-.231,4.144,4.144,0,0,1-.551-.231,1.475,1.475,0,0,1-.463-.32,4.831,4.831,0,0,0-.623-1.1,3.123,3.123,0,0,1-.623-1.566c.213-.516.053-.783-.463-.783-.32,0-.551-.32-.712-.943a18.208,18.208,0,0,1-.391-2.188,11.148,11.148,0,0,1,0-2.668,17.15,17.15,0,0,1,.463-2.508Zm9.553,3.451a4.377,4.377,0,0,1,1.726.783,8.594,8.594,0,0,0,7.828,0c.409-.213.8-.391,1.174-.551a2.358,2.358,0,0,1,.854-.231,1.288,1.288,0,0,0,.943-.32,3.208,3.208,0,0,1,.712-.463c.374-.213.747-.409,1.174-.623a15.768,15.768,0,0,0,3.914-2.508,1.321,1.321,0,0,1,.943-.463c.107,0,.32-.16.623-.463,0-.32.107-.463.32-.463.107,0,.338-.16.712-.463.374-.32.747-.676,1.174-1.1.516-.409.961-.783,1.334-1.1a5.315,5.315,0,0,1,.854-.623.406.406,0,0,0,.463-.463c-.213-.213-.178-.445.071-.712a1.589,1.589,0,0,1,1.174-.391c.516-.107.783-.356.783-.783a1.707,1.707,0,0,1,.463-1.245.691.691,0,0,1,.943-.16c.409.107.569-.107.463-.623s.053-.783.463-.783c.516,0,.676-.16.463-.463a2.016,2.016,0,0,1,.463-1.1c.409-.623.516-1.05.32-1.245a2.186,2.186,0,0,1-.231-1.405,2.946,2.946,0,0,1,.391-1.405.583.583,0,0,0,0-.943,1.143,1.143,0,0,1-.551-.783.5.5,0,0,1,.391-.623,1.2,1.2,0,0,0,.16-.783,9.413,9.413,0,0,1-.391-2.811,6.553,6.553,0,0,1,.231-2.668c.516-1.245-.107-1.886-1.886-1.886-2.081.107-3.184.32-3.291.623a3.91,3.91,0,0,1-1.245.463c-.623.213-.943.374-.943.463,0,.213-.32.409-.943.623a9.44,9.44,0,0,0-1.726.943,8.835,8.835,0,0,0-1.245.943,1.019,1.019,0,0,1-.783.32c-.516,0-.783.107-.783.32s-.267.551-.783,1.014a5.571,5.571,0,0,1-1.566,1.014c-.623.409-.889.676-.783.783,0,.213-.374.676-1.1,1.405s-1.192,1.1-1.405,1.1-.32.16-.32.463q0,.32-.854,1.014a2.556,2.556,0,0,1-1.334.712c-.213,0-.32.32-.32.943,0,.107-.213.267-.623.463-.729,0-.943.16-.623.463.107.213-.053.551-.463,1.014s-.729.712-.943.712a.933.933,0,0,0-.783.463c-.213.32-.267.569-.16.783a1.285,1.285,0,0,1-.623.943c-.516.213-.783.463-.783.783a1.33,1.33,0,0,1-.391.783,10.922,10.922,0,0,0-.712.943c-.729.729-1.1,1.245-1.1,1.566s-.374.729-1.1,1.245c-.623.623-.836.943-.623.943s.231.285.071.854a6.348,6.348,0,0,1-.712,1.637,2.424,2.424,0,0,0-.463,1.957c.107.783.409,1.174.943,1.174Zm28.321-5.319.16-.16-.16-.16a.16.16,0,0,0,0,.32Zm1.405-.783c.516.213.783.374.783.463l.16.32a.461.461,0,0,1,.16-.32,2.073,2.073,0,0,0,.32-.463c.214-.213.32-.338.32-.391s-.053-.018-.16.071c-.32.107-.463,0-.463-.32a1.58,1.58,0,0,1,.463-1.1q.32-.32,0-.16a.5.5,0,0,1-.623-.16c-.107-.32-.32-.32-.623,0-1.156,1.156-1.245,1.832-.32,2.028Zm.32-3.131q.934.64.32,0c0-.213-.16-.32-.463-.32s-.267.107.16.32Z" transform="translate(36.648 -0.002)"/>
      </g>
    </g>
  </g>
</svg>
