<svg xmlns="http://www.w3.org/2000/svg" xmlns:xlink="http://www.w3.org/1999/xlink" width="289" height="157" viewBox="0 0 289 157">
  <defs>
    <clipPath id="clip-Snippit_Web_Materials_Marketpalce_st54.335xd_assets-5">
      <rect width="289" height="157"/>
    </clipPath>
  </defs>
  <g id="Snippit_Web_Materials_Marketpalce_st54.335xd_assets-5" data-name="Snippit_Web Materials_Marketpalce_st54.335xd_assets-5" clip-path="url(#clip-Snippit_Web_Materials_Marketpalce_st54.335xd_assets-5)">
    <rect width="289" height="157" fill="#fff"/>
    <g id="Layer_1" data-name="Layer 1" transform="translate(10.977 44.842)">
      <g id="Group_2019" data-name="Group 2019" transform="translate(0 0)">
        <path id="Path_39593" data-name="Path 39593" d="M.16,9.227q.151-.216,0-.346c-.087-.087-.072-.26.072-.49.188-.188.274-.317.274-.418s.087-.2.245-.317A.8.8,0,0,1,1.2,7.481c.188,0,.274-.043.274-.144s.159-.231.49-.418A4.606,4.606,0,0,1,3,6.5c.144-.087.188-.188.144-.274-.087-.231.029-.447.389-.62a.963.963,0,0,1,.938-.072,2.372,2.372,0,0,0,.981-.072c.462-.087.721-.144.765-.144l.346-.144a.731.731,0,0,1,.563-.2c.274,0,.447-.043.49-.144a2.725,2.725,0,0,1,.765-.2c.375,0,.606-.043.692-.144,0-.144.188-.2.563-.2a3.766,3.766,0,0,0,.49-.029,3.043,3.043,0,0,0,.692-.173,1.819,1.819,0,0,1,.62-.144h.418q.346.13.346,0c0-.087.2-.173.62-.245s.678-.058.765.029q.216.13.346,0c.087-.144.346-.216.765-.216s.678.072.765.216a.493.493,0,0,0,.418.072.462.462,0,0,1,.49-.173c.231.029.375.1.418.245a.325.325,0,0,0,.346.072.548.548,0,0,1,.418.144.551.551,0,0,0,.346.2c.144,0,.346.173.62.519a1.6,1.6,0,0,1,.418.793,1.232,1.232,0,0,0,.144.62c.188.144.2.274.072.418v.692a1.885,1.885,0,0,1,0,.981,6.546,6.546,0,0,0-.216.62,5.746,5.746,0,0,1-.346.909.751.751,0,0,0-.173.418c-.029.188-.058.375-.1.563a1.782,1.782,0,0,0-.144.563,3.317,3.317,0,0,1-.072.563c0,.144-.1.26-.274.346-.188.043-.2.144-.072.274a.291.291,0,0,1,.173.317,3.019,3.019,0,0,1-.447.736c-.332.418-.418.692-.274.837.087.087.072.231-.072.418a.654.654,0,0,0-.2.49c0,.087-.144.274-.418.563a2.317,2.317,0,0,0-.346.563c.043,0-.1.216-.418.62a1.543,1.543,0,0,1-.317.447.471.471,0,0,0-.173.317c0,.1-.087.2-.245.346s-.288.188-.389.144c-.087-.087-.144,0-.144.274,0,.231-.2.563-.62.981l-.591.591a3.806,3.806,0,0,0-.447.519c-.231.332-.447.49-.62.49-.144,0-.216.043-.216.144.043.043.029.13-.072.245s-.188.216-.274.317c-.231.231-.346.375-.346.418s.115.087.346.144a1.376,1.376,0,0,0,.62-.072c.043-.087.188-.144.418-.173s.793-.029,1.673-.029c.418,0,.793,0,1.154.029a2.735,2.735,0,0,1,.664.1,1.742,1.742,0,0,0,.692.029,2.662,2.662,0,0,0,.692-.1.784.784,0,0,1,.591-.1,5.607,5.607,0,0,1,.938.173,4.923,4.923,0,0,1,.909.346c.274.144.418.26.418.346q0,.216.173.216a.241.241,0,0,0,.245-.144c.043-.087.2-.087.447,0a2.967,2.967,0,0,1,.793.447c.274.216.534.418.765.62s.346.389.346.519c0,.043.043.115.144.2.087,0,.144.159.144.49.087.274.159.418.2.418.144,0,.2.115.2.346,0,.332.043.49.144.49a.7.7,0,0,1,.1.389,2.778,2.778,0,0,1,0,.692c-.029.26-.058.49-.1.692a.924.924,0,0,1-.2.447c-.188.188-.231.332-.144.418a2.383,2.383,0,0,1-.144.49,5.567,5.567,0,0,1-.389.866c-.159.3-.317.577-.447.837a3.014,3.014,0,0,1-.274.447,1.8,1.8,0,0,0-.317.447,1.112,1.112,0,0,0-.173.447.108.108,0,0,1-.072.1.455.455,0,0,0-.144.173.129.129,0,0,0-.144.144.068.068,0,0,0-.072.072c.043,0-.029.087-.2.274-.274.087-.418.159-.418.2v.2c0,.087-.159.289-.49.591s-.606.548-.837.736c-.375.274-.563.49-.563.62a.129.129,0,0,1-.144.144c-.144,0-.26.087-.346.274a.842.842,0,0,1-.563.418c-.332.087-.49.188-.49.274,0,.144-.115.3-.346.49a.989.989,0,0,1-.563.274c-.188,0-.231.043-.144.144-.188.231-.346.418-.49.563a5.157,5.157,0,0,1-.418.389c-.144.115-.231.173-.274.173a1.6,1.6,0,0,0-.62.346c-.317.231-.462.389-.418.49a.2.2,0,0,1-.144.072.87.87,0,0,0-.418.245q-.281.238-.909.866a3.6,3.6,0,0,1-.692.49c-.043,0-.072.043-.072.144.087.087.029.188-.2.274a4.216,4.216,0,0,0-.909.765c-.375.375-.62.563-.765.563a.177.177,0,0,0-.2.2c-.043.144-.159.2-.346.2s-.274.115-.274.346c.043.144-.087.274-.418.418q-.281.13-.389.909A1.5,1.5,0,0,0,8.6,46.516c.188.274.1.447-.245.519a1.211,1.211,0,0,1-1.01-.245,2.63,2.63,0,0,1-.563-.765c-.1-.274-.188-.418-.274-.418-.043,0-.115-.144-.2-.418a3,3,0,0,1-.144-.519.994.994,0,0,0-.144-.389.857.857,0,0,1-.072-.563c.188-.188.2-.274.072-.274s-.26-.534-.346-1.6c0-.317-.043-.534-.144-.62l-.144-.692c0-.418-.043-.678-.144-.765a.551.551,0,0,1-.072-.346c.043-.043.043-.245,0-.591s-.115-.75-.2-1.212c-.1-.5-.159-.981-.216-1.385s-.072-.721-.072-.909c0-.317-.043-.534-.144-.62a1.88,1.88,0,0,1-.1-.62,1.72,1.72,0,0,1,.1-.837.661.661,0,0,0-.144-.62,1.043,1.043,0,0,1-.144-.563c.087-.274.072-.462-.072-.563A1.132,1.132,0,0,1,4,30.879c-.029-.317-.058-.909-.1-1.745,0-.462-.043-.736-.144-.837a2.725,2.725,0,0,1-.2-.765v-.664a1.662,1.662,0,0,0-.072-.519,7.093,7.093,0,0,1-.1-1.572c.029-.534.1-.851.245-.938.144-.144.115-.26-.072-.346-.188-.043-.289-.115-.317-.2a4.234,4.234,0,0,1-.029-.765,4.067,4.067,0,0,0-.029-.62,2.164,2.164,0,0,1-.029-.346,3.273,3.273,0,0,0-.029-.418,6.779,6.779,0,0,1-.029-.793,8.532,8.532,0,0,1,.029-.866,5.021,5.021,0,0,0,.029-.563.285.285,0,0,0,.072-.2,1.457,1.457,0,0,0,.274-.346l.274-.563a.575.575,0,0,1,.072-.346c.087-.188.087-.274,0-.274s-.144-.159-.144-.49.043-.534.144-.62v-.317a3.432,3.432,0,0,0-.072-.591,3.488,3.488,0,0,1-.144-.664.687.687,0,0,1,.144-.389c.144-.188.115-.274-.072-.274-.144,0-.188-.144-.144-.418q.13-.346,0-.346c-.043,0-.087-.087-.1-.274a3.964,3.964,0,0,1-.029-.591,3.964,3.964,0,0,1,.029-.591.749.749,0,0,1,.1-.346c.144-.043.115-.144-.072-.274-.144-.144-.2-.5-.2-1.111a3.308,3.308,0,0,0-.144-1.01c-.058-.072-.188,0-.418.245a3.338,3.338,0,0,0-.317.346c-.029.043,0,.115.1.2.188.087.231.26.144.49a.505.505,0,0,1-.49.346c-.144,0-.2.043-.2.144s-.144.13-.418.1a1.071,1.071,0,0,1-.563-.173.584.584,0,0,0-.418-.144c-.144.087-.26.043-.346-.144a.647.647,0,0,0-.072-.274,2.507,2.507,0,0,0-.144-.274c-.087-.231-.072-.389.072-.49ZM6.766,9.5c.274,0,.375.606.274,1.8v.664c0,.2.029.317.072.317.087.087.1.361.029.793a1.587,1.587,0,0,1-.245.793q-.216.13,0,.216c.144.043.216.274.245.692a1.778,1.778,0,0,1-.1.909c-.043.043-.029.115.072.2.144.043.144.188.029.418s-.245.346-.389.346a.177.177,0,0,0-.2.2c0,.087.115.115.346.072.188-.043.289,0,.317.173s0,.779-.029,1.846c0,.606,0,1.111.029,1.529s.058.62.1.62c.087.043.216-.029.389-.245s.289-.389.389-.519a.593.593,0,0,1,.418-.346q.346-.216.346-.346c0-.144.043-.2.144-.2s.144-.072.144-.216.115-.26.346-.346c.188-.087.274-.2.274-.346s.159-.317.49-.563.433-.389.346-.49v-.072h.144c.087,0,.144-.072.144-.2s.159-.317.49-.563a1.906,1.906,0,0,0,.418-.418c.087-.144.159-.26.2-.346a.621.621,0,0,1,.346-.418c.188,0,.317-.159.418-.49a.889.889,0,0,1,.418-.49.377.377,0,0,0,.2-.346c0-.043.072-.144.2-.274a.524.524,0,0,0,.216-.245,1.074,1.074,0,0,1,.2-.317.918.918,0,0,1,.418-.563,3.035,3.035,0,0,0,.49-.765c.188-.418.317-.62.418-.62.188,0,.317-.159.418-.49A4.414,4.414,0,0,0,15.9,9.7a6.286,6.286,0,0,0-.144-1.356,3.8,3.8,0,0,0-.418-1.183,1.544,1.544,0,0,1-.346-.692.277.277,0,0,0-.2-.274.3.3,0,0,0-.346.072.644.644,0,0,1-.49.144.666.666,0,0,1-.49-.144q0-.216-.216,0a.773.773,0,0,1-.346.072A4.258,4.258,0,0,1,12.06,6.2c-.375-.043-.577.029-.62.2a.48.48,0,0,1-.173.2,1.517,1.517,0,0,1-.664,0c-.5,0-.765.072-.765.216-.043.188-.2.274-.49.274-.332,0-.49.043-.49.144a1.269,1.269,0,0,1-.765.274A1.44,1.44,0,0,0,6.91,8.693a1.99,1.99,0,0,1-.2.62c-.087.087-.072.144.072.144Zm.418,16.344a1.132,1.132,0,0,1,.144.692v1.63c0,.765,0,1.673.029,2.712s.058,2.178.1,3.4S7.545,36.75,7.6,38c.043,1.212.087,2.02.1,2.438a2.03,2.03,0,0,0,.1.692,1.425,1.425,0,0,1,.072.62c0,.361.087.49.274.346.188-.043.274-.188.274-.418-.043-.188.144-.447.563-.765.375-.274.62-.476.765-.591a5.157,5.157,0,0,0,.418-.389,1.2,1.2,0,0,1,.563-.346.5.5,0,0,0,.317-.173l.317-.317c.231-.231.389-.346.49-.346.144,0,.26-.087.346-.274a.936.936,0,0,1,.49-.346c.231-.144.346-.231.346-.274.144-.144.231-.2.274-.2.144,0,.2-.043.2-.144s.1-.245.317-.447a4.539,4.539,0,0,1,.793-.591c.375-.188.49-.274.346-.274-.087,0,0-.1.245-.317a2.115,2.115,0,0,1,.591-.389c.188-.087.274-.159.274-.216a1.021,1.021,0,0,1,.317-.49c.2-.231.361-.346.447-.346.043,0,.144-.072.274-.2s.289-.3.447-.49.317-.346.447-.49.2-.231.2-.274a.129.129,0,0,1,.144-.144c.1,0,.26-.144.519-.418s.375-.462.375-.563c0-.043.072-.072.216-.072.087,0,.188-.087.274-.274a4.58,4.58,0,0,1,.245-.389c.115-.159.4-.5.866-1.01a1.306,1.306,0,0,0,.274-.62.322.322,0,0,1,.2-.346c.087-.144.043-.3-.144-.49-.231-.144-.346-.274-.346-.418,0-.087-.087-.216-.245-.389s-.289-.245-.375-.245c-.043,0-.159-.087-.346-.274s-.3-.274-.346-.274c-.087,0-.216-.087-.389-.274s-.245-.317-.245-.418-.072-.144-.2-.144c-.231-.043-.5-.1-.793-.173a3.368,3.368,0,0,1-.736-.245,1.287,1.287,0,0,0-.274-.1,2.1,2.1,0,0,1-.274-.1,2.043,2.043,0,0,1-.692-.144,1.664,1.664,0,0,0-.591-.072H13.459a.8.8,0,0,1-.447-.072c0-.188-.115-.159-.346.072a1.224,1.224,0,0,1-.837.144c-.332-.087-.49-.072-.49.072a.416.416,0,0,1-.274.072.551.551,0,0,0-.346-.072,3.418,3.418,0,0,1-.62-.072c-.231-.043-.433-.087-.591-.1a.726.726,0,0,1-.317-.1,4.147,4.147,0,0,0-.49-.173,6.071,6.071,0,0,0-.692-.173,1.007,1.007,0,0,1-.418-.144c-.087,0-.231.144-.418.418-.144.332-.144.5,0,.563Z" transform="translate(0.067 1.573)"/>
        <path id="Path_39594" data-name="Path 39594" d="M18.288,22.774a12.092,12.092,0,0,1,.1-1.947,3.1,3.1,0,0,1,.245-.837c.188-.231.2-.375.072-.418-.144-.087-.173-.4-.1-.938a2.058,2.058,0,0,1,.375-1.082,1.8,1.8,0,0,0,.216-.274A2.509,2.509,0,0,1,19.341,17c.043-.188.188-.274.418-.274a1.149,1.149,0,0,1,.62.173c.188.115.26.245.2.389s.029.2.216.2c.231,0,.346.159.346.49s.043.534.144.62a2.027,2.027,0,0,1,.144.837c-.087.332-.072.563.072.692a5.914,5.914,0,0,0,.029.591c.029.3.058.664.1,1.082,0,.375,0,.707.029,1.01a5.915,5.915,0,0,1,.029.591,1.181,1.181,0,0,1,.072.563c-.043.332-.029.49.072.49.188,0,.159.115-.072.346-.188.231-.2.375-.072.418.087.043.144.2.173.49a.881.881,0,0,1-.1.62c-.043.087-.029.144.072.144.231,0,.346.5.346,1.529q0,.563.216.563a.551.551,0,0,1,.072.346c-.043.274,0,.447.1.49s.216-.043.317-.274a1.856,1.856,0,0,1,.49-.62.294.294,0,0,0,.144-.274c-.1-.087-.029-.332.173-.736s.361-.591.447-.591h.274c.087,0,.087-.159,0-.49-.043-.274,0-.462.144-.563.231,0,.274-.072.144-.216a.921.921,0,0,1,.216-.563,1.306,1.306,0,0,0,.274-.62c0-.188.072-.274.2-.274a.232.232,0,0,0,.144-.2,1.365,1.365,0,0,1,.144-.765,1.634,1.634,0,0,0,.274-.765,1.191,1.191,0,0,1,.216-.62,4.207,4.207,0,0,1,.346-.49.434.434,0,0,0,.072-.418.731.731,0,0,1-.029-.591,5.405,5.405,0,0,1,.274-.765,2.031,2.031,0,0,1,.418-.62.455.455,0,0,1,.447-.173,1.232,1.232,0,0,0,.49.144.744.744,0,0,1,.49.274.551.551,0,0,0,.346.2c.087,0,.231.144.418.418s.317.418.418.418c.144,0,.188.115.144.346q-.13.411,0,.563.13.216,0,.346a2.028,2.028,0,0,0-.144.837,9.5,9.5,0,0,1,0,2.221,1.232,1.232,0,0,1-.144.62c-.043.188-.029.274.072.274q.216.065,0,.909a5.928,5.928,0,0,0-.173,1.01q-.043.454-.173,1.774a43.186,43.186,0,0,1-.418,4.529,2.612,2.612,0,0,0-.144.909,3.407,3.407,0,0,1-.2.736c-.1.216-.188.317-.274.317-.043,0-.072.043-.072.144.043.043.029.087-.072.144a.647.647,0,0,1-.274.072c-.332.087-.49.159-.49.2,0,.188-.188.159-.563-.072a.621.621,0,0,1-.2-.62,3.452,3.452,0,0,0-.144-.837,8.635,8.635,0,0,1-.173-.866,8.873,8.873,0,0,1-.1-1.428c0-.519,0-.981.029-1.428a2.339,2.339,0,0,1,.1-.736c.144-.144.144-.231,0-.274-.274-.087-.418-.072-.418.072a.773.773,0,0,1-.072.346,1.286,1.286,0,0,0-.144.418c-.043.144-.188.216-.418.216-.144,0-.159.043-.072.144q.216.065,0,.346c-.144.144-.159.2-.072.2l-.418.563c-.087.144-.188.274-.274.418s-.115.231-.072.274c.043.144-.087.346-.375.62s-.548.389-.736.346c-.144-.144-.2-.115-.2.072,0,.043-.043.072-.144.072a2.134,2.134,0,0,0-.692.274l-.563.274h-.144a.285.285,0,0,0-.2.072.941.941,0,0,1-.692-.144,1.232,1.232,0,0,0-.49-.144c-.144.144-.2.072-.2-.216-.043-.144-.115-.2-.2-.2-.087.043-.26-.115-.49-.49s-.317-.606-.274-.692a.471.471,0,0,0-.144-.563,1.489,1.489,0,0,1-.144-.909c.043-.418,0-.62-.144-.62a.23.23,0,0,1-.144-.072h-.072v-.389a5.224,5.224,0,0,0-.072-.736c-.043-.692-.087-1.327-.1-1.875s-.029-1.082-.029-1.6V24.476c0-.5.029-1.067.072-1.673Z" transform="translate(8.164 7.427)"/>
        <path id="Path_39595" data-name="Path 39595" d="M28.716,58.676c.087,0,.188-.115.274-.346a3.108,3.108,0,0,0,.274-.317.841.841,0,0,1,.274-.245c.231-.087.346-.216.346-.346a1.112,1.112,0,0,1,.173-.447,3.729,3.729,0,0,1,.317-.519,2.8,2.8,0,0,0,.274-.317,4.192,4.192,0,0,0,.418-.591,7.078,7.078,0,0,1,.765-.981c.188-.043.231-.188.144-.418s0-.375.274-.418c.188-.144.26-.231.2-.274-.087-.087-.029-.317.216-.664s.389-.519.49-.519c.043,0,.072-.087.072-.274q-.151-.216,0-.346a4.454,4.454,0,0,0,.346-.563,4.826,4.826,0,0,1,.692-1.428,4.555,4.555,0,0,1,.692-.938c.087-.043.144-.188.144-.418-.087-.332.115-.923.62-1.8a.97.97,0,0,0,.2-.62.645.645,0,0,1,.346-.563c.231-.188.3-.332.2-.418-.144-.144-.115-.3.072-.49a2.5,2.5,0,0,1,.144-.274.647.647,0,0,0,.072-.274,1.054,1.054,0,0,0,.1-.274.724.724,0,0,1,.173-.274,1.091,1.091,0,0,0,.1-.346,1.434,1.434,0,0,1,.1-.346.527.527,0,0,1,.144-.418c.087,0,.144-.144.144-.418a.62.62,0,0,1,.1-.317,1.7,1.7,0,0,1,.245-.317c.144-.188.159-.3.072-.346a.387.387,0,0,1-.072-.389,6.867,6.867,0,0,1,.418-.938,2.155,2.155,0,0,0,.274-.909,2.222,2.222,0,0,1,.144-.765c.087-.274.188-.563.274-.837a2.093,2.093,0,0,0,.2-.981,2.259,2.259,0,0,0,.1-.49,1.77,1.77,0,0,1,.1-.418c.144-.375.231-.62.274-.765a6.712,6.712,0,0,0,.144-.765,3.5,3.5,0,0,1,.029-.519.806.806,0,0,1,.173-.447,3.633,3.633,0,0,0,.2-1.082c.043-.534.087-1.154.144-1.846s.058-1.428.029-2.193-.058-1.443-.1-2.048a6.613,6.613,0,0,1-.072-1.01V22.844a.647.647,0,0,1-.072-.274.632.632,0,0,0-.418.2.489.489,0,0,0-.144.49,2.355,2.355,0,0,1-.216.866,1.533,1.533,0,0,1-.418.664.428.428,0,0,0-.144.274c.043.087-.043.231-.274.418-.188.087-.274.188-.274.274q.065.281-.346.692c-.188.087-.274.188-.274.274a.966.966,0,0,1-.173.418,3.371,3.371,0,0,1-.375.49,5.16,5.16,0,0,1-.418.389c-.144.115-.26.144-.346.1-.188-.043-.26.043-.2.274q0,.281-.563.563a1.012,1.012,0,0,0-.346.216.56.56,0,0,0-.2.144,2.506,2.506,0,0,1-.62.216,1.642,1.642,0,0,0-.765.144c-.087.043-.2.087-.346.144s-.274.087-.418.144c-.274.188-.418.3-.418.346,0,.087-.173.13-.519.1s-.548-.087-.591-.173a.177.177,0,0,0-.274,0c-.274.087-.649-.115-1.111-.62A4.972,4.972,0,0,1,28.9,27.879,8.542,8.542,0,0,1,28.34,26a4.785,4.785,0,0,0-.029-.62,1.438,1.438,0,0,0-.173-.563,2.794,2.794,0,0,1-.1-.664,3.481,3.481,0,0,1,.029-.793v-.736c0-.2-.029-.317-.072-.317-.1,0-.144-.1-.144-.317s.043-.332.144-.389.144-.159.144-.346.043-.274.144-.274c.144,0,.159-.043.072-.144-.1-.231,0-.389.274-.49a1.156,1.156,0,0,1,.765,0,2.656,2.656,0,0,1,.765.519c.274.26.418.433.418.519l.072.144v.346c.144.981.115,1.529-.072,1.673-.144.043-.072.188.2.418.317.332.389.563.2.692a.334.334,0,0,0-.1.317q.043.173.173.173c.144,0,.2.144.2.418s.043.418.144.418.188.087.274.274a1.739,1.739,0,0,0,.389.62c.159.188.288.274.375.274a.62.62,0,0,0,.317-.1,5.847,5.847,0,0,0,.736-.664,4.708,4.708,0,0,0,.418-.519c.188-.26.389-.519.62-.793.231-.317.433-.591.591-.793s.26-.317.317-.317.072-.043.072-.144c-.043-.043-.029-.188.072-.418A6.392,6.392,0,0,1,36,22.57c.144-.317.289-.664.447-1.01s.289-.62.389-.793a4.975,4.975,0,0,1,.274-.49A.7.7,0,0,1,37.385,20q.216-.065,0-.346a1.02,1.02,0,0,1,.144-.692,1.449,1.449,0,0,0,.2-.563.447.447,0,0,1,.072-.245c.043-.072.087-.144.144-.245a1.066,1.066,0,0,0,.2-.49,3.523,3.523,0,0,1,.62-1.111,6.035,6.035,0,0,0,.664-.793c.159-.26.2-.433.1-.519-.043,0-.072-.216-.072-.62a4.368,4.368,0,0,0,.144-.837.807.807,0,0,1,.563-.62.757.757,0,0,1,.837.072q.216.216.216,0a.344.344,0,0,1,.274-.2c.231,0,.418.2.563.591a6.633,6.633,0,0,1,.317,1.327c.072.49.115.981.144,1.457s.029.851.029,1.082a5.657,5.657,0,0,1,.1.736,3.506,3.506,0,0,0,.1.591,7.168,7.168,0,0,0,.072.909,4.407,4.407,0,0,0,.216.909,2.568,2.568,0,0,1,.072.909.285.285,0,0,0,.072.2c.043,0,.087.188.1.563s.029.793.029,1.255,0,.894-.029,1.284a1.954,1.954,0,0,1-.1.664c-.043.144-.043.231,0,.274.087.043.144.216.173.49a.694.694,0,0,1-.1.563c-.1.087-.144.462-.144,1.111a4.308,4.308,0,0,1-.144,1.327,7.914,7.914,0,0,0-.1.866c-.029.3-.058.822-.1,1.572-.043.332-.087.635-.1.938a2.217,2.217,0,0,1-.1.591,7.1,7.1,0,0,0-.1,1.212c-.029.62-.029,1.053-.029,1.284a2.222,2.222,0,0,1-.144.765,6.881,6.881,0,0,0-.274,1.327,10.06,10.06,0,0,0-.144,1.385,1.007,1.007,0,0,1-.144.418.53.53,0,0,0-.1.317c-.029.159-.058.361-.1.591a3.34,3.34,0,0,1-.072.664,2.021,2.021,0,0,1-.144.447.654.654,0,0,0-.2.49,1.1,1.1,0,0,1-.2,1.039.428.428,0,0,0-.144.346c.043.043.029.26-.072.62s-.144.577-.144.62a1.007,1.007,0,0,1-.144.418.717.717,0,0,0-.2.389,3.456,3.456,0,0,1-.2.519.973.973,0,0,1-.274.692c-.043,0-.087.072-.1.2s-.058.274-.1.418c-.1.418-.188.62-.274.62a.709.709,0,0,0-.144.49,2.257,2.257,0,0,1-.274.866,4.855,4.855,0,0,1-.563.938c-.1.144-.115.231-.072.274s.029.159-.072.346q-.216.065-.346.563a1.5,1.5,0,0,0-.274.447c-.1.2-.188.4-.274.591-.087.231-.173.433-.245.591a.967.967,0,0,0-.1.389,1.105,1.105,0,0,0-.1.245.971.971,0,0,1-.173.245c-.087.1-.144.159-.144.216a.068.068,0,0,0-.072.072,1.2,1.2,0,0,1-.2.346c-.144.188-.289.389-.447.62s-.317.447-.447.664-.231.317-.274.317v.274c.087.087.072.144-.072.144-.087,0-.144.072-.144.2,0,.188-.115.317-.346.418a2.365,2.365,0,0,0-.418.563.505.505,0,0,1-.346.49.344.344,0,0,0-.2.274c0,.087-.159.317-.49.664s-.534.519-.62.519a.239.239,0,0,0-.274.274.589.589,0,0,1-.2.346c-.144.144-.26.159-.346.072l-.072.072-.144.144a3.038,3.038,0,0,1-.765.866,1.117,1.117,0,0,1-.837.245c-.043,0-.115.043-.2.144,0,.144-.144.159-.418.072a.448.448,0,0,1-.346-.418c0-.144-.144-.188-.418-.144s-.389-.029-.346-.216c.043-.087.058-.159.029-.2a.237.237,0,0,1-.029-.144c-.043-.043-.058-.173-.029-.389a1.874,1.874,0,0,1,.216-.664,5.97,5.97,0,0,1,.346-.62c.115-.188.2-.274.245-.274Z" transform="translate(12.421 5.684)"/>
        <path id="Path_39596" data-name="Path 39596" d="M40.232,29.579a.331.331,0,0,0,0-.49,1.1,1.1,0,0,1,.072-.837,4.524,4.524,0,0,0,.144-.765.39.39,0,0,1,.072-.274c.043-.087.087-.2.144-.346a1.067,1.067,0,0,0,.072-.418,7.446,7.446,0,0,1,.245-.981c.115-.375.245-.736.375-1.111s.274-.692.418-.981a1.309,1.309,0,0,1,.346-.49.456.456,0,0,0,.216-.418,1.3,1.3,0,0,1,.274-.692,2.376,2.376,0,0,0,.317-.418,2.232,2.232,0,0,1,.317-.418q.281-.563.563-.563c.188-.087.274-.159.274-.216a.54.54,0,0,1,.029-.389c.072-.159.144-.245.245-.245a.177.177,0,0,0,.2-.2.911.911,0,0,1,.692-.692c.043,0,.115-.087.2-.274a.306.306,0,0,1,.346-.346c.188-.087.274-.159.274-.2,0-.144.2-.375.591-.692a2.218,2.218,0,0,1,.736-.49q.216.065.346-.216c.087-.188.332-.317.736-.418s.635-.087.736,0c.144.043.2,0,.2-.144,0-.231.317-.245.981-.029a4.464,4.464,0,0,1,1.6.866,10.713,10.713,0,0,1,.837.909.843.843,0,0,1,.216.49c0,.188.072.274.2.274.087,0,.188.115.274.346s.188.49.274.765a5.412,5.412,0,0,1,.2.866,1.659,1.659,0,0,1,0,.664.893.893,0,0,0,.072.62c.087.087.1.332.029.692s-.173.606-.317.692c-.144.144-.188.231-.144.274.043.087-.029.346-.245.765a1.955,1.955,0,0,1-.519.765.432.432,0,0,0-.274.418.945.945,0,0,1-.2.418,4.61,4.61,0,0,1-.519.563c-.216.188-.4.361-.591.519a.823.823,0,0,1-.49.245c-.274.087-.389.188-.346.274,0,.144-.087.231-.274.274-.231.087-.346.159-.346.2,0,.087-.274.26-.793.49s-.866.332-1.01.274c-.188-.087-.332-.087-.418,0-.188.188-.563.231-1.111.144s-.837-.26-.837-.49c0-.144-.072-.144-.2,0a.615.615,0,0,1-.519.072q-.389-.065-.389-.216c0-.1-.043-.144-.144-.144-.043,0-.072.043-.072.144a.138.138,0,0,1-.029.245,1.547,1.547,0,0,1-.519.173c-.375.043-.563.3-.563.765,0,.332-.043.534-.144.62q-.065.065,0,.216a1.409,1.409,0,0,1,.1.49c.029.231.058.49.1.765a6.5,6.5,0,0,0,.072.938,3.134,3.134,0,0,0,.144.664.811.811,0,0,1,.144.418v.274a.632.632,0,0,0,.2.418,1.424,1.424,0,0,1,.274.563c.043.087.087.2.144.317a2.124,2.124,0,0,0,.144.317,1.067,1.067,0,0,1,.418.62q.13.346.346.346t.346.346a.6.6,0,0,0,.49.346.986.986,0,0,1,.317.072,2.124,2.124,0,0,1,.317.144c.144.144.2.188.2.144,0-.087.087-.144.245-.144h.591a2.949,2.949,0,0,0,1.327-.274c.144-.043.274-.087.418-.144a1.342,1.342,0,0,1,.346-.072.548.548,0,0,0,.418-.144c0-.087.087-.144.274-.144a.744.744,0,0,0,.49-.274.739.739,0,0,1,.563-.216c.245,0,.346-.072.346-.2,0-.188.13-.332.389-.447a.725.725,0,0,1,.664-.029c.375.188.534.087.49-.274a.691.691,0,0,1,.1-.418,1.081,1.081,0,0,1,.447-.274q.563-.346.563-.563a.177.177,0,0,1,.2-.2.663.663,0,0,0,.418-.2q.13-.216.563-.216a4.238,4.238,0,0,1,.49-.144c.418-.274.678-.159.765.346,0,.274.087.418.274.418.317.087.2.49-.346,1.183a3.66,3.66,0,0,0-.418.62c0,.144-.029.2-.072.2,0,.087-.115.188-.346.274a.4.4,0,0,0-.274.346.425.425,0,0,1-.274.346c-.188.188-.274.3-.274.346,0,.087-.1.216-.317.389a.984.984,0,0,1-.447.245c-.144,0-.2.043-.2.144a1.2,1.2,0,0,1-.2.346,2.948,2.948,0,0,1-.519.519,6.524,6.524,0,0,0-.563.49,1.967,1.967,0,0,1-.389.317,1.68,1.68,0,0,1-.49.346,4.974,4.974,0,0,0-.49.274c-.274.087-.418.159-.418.2,0,.087-.115.144-.346.144a.632.632,0,0,0-.418.2.315.315,0,0,1-.346.216c-.188,0-.274.043-.274.144a1.1,1.1,0,0,1-.692.144c-.375,0-.606.043-.692.144a1.177,1.177,0,0,1-.62.173,7.409,7.409,0,0,1-1.111-.029,2.433,2.433,0,0,1-1.039-.418c-.144-.231-.274-.274-.418-.144a.206.206,0,0,1-.317-.029.345.345,0,0,1-.029-.447c.043-.144-.1-.159-.418-.072-.188.144-.3.087-.346-.144,0-.188-.072-.2-.2-.072-.087.087-.2.072-.317-.072a.873.873,0,0,1-.173-.563c0-.144-.087-.188-.274-.144-.144.043-.3-.043-.49-.274a.917.917,0,0,1-.2-.317c-.043-.115-.115-.173-.2-.173a.527.527,0,0,1-.144-.418c0-.144-.043-.2-.144-.2s-.144-.144-.144-.418c0-.317-.072-.447-.216-.346-.087.043-.188,0-.274-.173a.651.651,0,0,1-.072-.519c0-.144-.029-.216-.072-.216-.087,0-.188-.2-.274-.62a2.607,2.607,0,0,1-.2-.62,2.409,2.409,0,0,0-.2-.62c-.043-.188-.087-.447-.144-.765a6.784,6.784,0,0,1-.072-.909,4.853,4.853,0,0,1-.072-.736.69.69,0,0,0-.072-.389v-.938a4.362,4.362,0,0,1,.029-.62.937.937,0,0,1,.1-.389Zm5.222-4.313a1.37,1.37,0,0,0,.245-.144.447.447,0,0,1,.245-.072c.188,0,.274-.043.274-.144s.159-.2.49-.346a5.381,5.381,0,0,0,.49-.346,5.378,5.378,0,0,1,.49-.346c.274-.274.462-.418.563-.418.043,0,.072-.043.072-.144-.043-.043,0-.144.144-.274a.634.634,0,0,0,.418-.418,6.507,6.507,0,0,1,.765-1.255,2.384,2.384,0,0,0,.447-1.5c-.029-.534-.216-.793-.591-.793a4.443,4.443,0,0,0-1.111.2q-.692.216-.692.346h-.072a.49.49,0,0,1-.2.072c-.144,0-.375.2-.692.62a2.04,2.04,0,0,1-.346.519q-.216.238-.346.389l-.2.2a.6.6,0,0,1-.072.144,3.532,3.532,0,0,1-.173.447c-.072.159-.13.245-.173.245-.1,0-.26.26-.49.765a3.132,3.132,0,0,0-.346,1.111,1.861,1.861,0,0,0,.274,1.212c.188.216.389.173.62-.1Zm1.039,14.05.072-.144a.129.129,0,0,0-.144.144l-.072.144A.129.129,0,0,0,46.493,39.316Zm.49-.2.072.072.072-.072s-.029-.072-.072-.072A.068.068,0,0,0,46.983,39.114Zm1.673-.072.072-.072s-.029-.072-.072-.072a.068.068,0,0,0-.072.072Zm1.111-13.848s.115-.13.2-.245a1.268,1.268,0,0,1,.418-.317c.317-.231.49-.418.49-.563a1.1,1.1,0,0,0,.144-.216,1.68,1.68,0,0,1,.346-.49c.317-.418.447-.678.346-.765-.043-.144-.087-.2-.1-.173s-.13.2-.317.519a1.688,1.688,0,0,1-.692.909c-.274.188-.375.346-.274.49,0,.144-.029.2-.072.2a2.449,2.449,0,0,0-.765.563c-.418.375-.62.606-.62.692s.144.029.418-.173a2.265,2.265,0,0,0,.49-.447Z" transform="translate(17.868 6.955)"/>
        <path id="Path_39597" data-name="Path 39597" d="M53.935,31.334c.188-.188.188-.274,0-.274-.1,0-.159-.087-.173-.245a.411.411,0,0,1,.1-.389c.144-.144.144-.231,0-.274-.087-.087-.115-.274-.072-.563a1.637,1.637,0,0,1,.2-.62.7.7,0,0,0,.1-.389c.029-.216.058-.447.1-.736v-.765a.744.744,0,0,1,.072-.418c0-.144.087-.2.274-.2.144-.087.159-.231.072-.418a1.347,1.347,0,0,1-.072-1.01,2.382,2.382,0,0,1,.418-1.082.654.654,0,0,0,.2-.49,1.485,1.485,0,0,1,.274-.563,1.7,1.7,0,0,0,.2-.519,5.937,5.937,0,0,0,.072-1.082,16.771,16.771,0,0,1,.072-1.8,1.337,1.337,0,0,1,.2-.692c.087-.087.072-.2-.072-.346a.577.577,0,0,1,.072-.49.551.551,0,0,0,.072-.346c-.043-.144.043-.274.274-.418.231-.231.3-.375.216-.418-.043-.144.029-.26.245-.346a1.161,1.161,0,0,1,.664-.072,1.659,1.659,0,0,1,.664.447c.26.26.317.4.173.447-.087,0-.043.043.144.144a.507.507,0,0,1,.2.563q-.065.346-.346.346c-.087,0-.115.115-.072.346,0,.231-.029.346-.072.346-.087,0-.159.144-.2.447a2.071,2.071,0,0,0,0,.736c.087.188.173.274.245.274s.1-.087.1-.274c0-.087.144-.288.447-.591a5.447,5.447,0,0,1,1.01-.793c.274-.188.418-.317.418-.418,0-.144.072-.216.2-.216.087,0,.144-.072.144-.2,0-.043.072-.144.2-.274.144,0,.462-.2.966-.62a2.057,2.057,0,0,1,.664-.418,1.649,1.649,0,0,1,.375-.072c.274.087.418.072.418-.072a1.027,1.027,0,0,1,.447-.317,1.582,1.582,0,0,1,.591-.173.551.551,0,0,0,.346-.072,2.985,2.985,0,0,1,1.428-.1,2.071,2.071,0,0,1,1.212.447,1.186,1.186,0,0,1,.2,1.183c-.144.462-.389.692-.764.692-.144,0-.188.144-.144.418.087.563-.606,1.024-2.092,1.385-1.3.332-2.149.534-2.539.62a2.341,2.341,0,0,0-.664.2c0,.144-.115.2-.346.2-.231.087-.346.188-.346.274a.985.985,0,0,1-.173.317,6.152,6.152,0,0,0-.375.591c-.188.231-.332.447-.447.62s-.159.3-.1.346c0,.188-.043.3-.144.346-.144.043-.2.159-.2.346a2.344,2.344,0,0,1-.274.49c-.231.231-.3.389-.2.49a.744.744,0,0,1-.072.418v.346c.087,0,.043.043-.144.144s-.231.216-.144.346a1.294,1.294,0,0,1-.072.49,5.051,5.051,0,0,0-.2,2.092c-.043.5-.087.966-.1,1.356s-.058.591-.1.591-.029.2.072.62c.231.418.26.678.072.765-.087.087-.087.26,0,.49a1.747,1.747,0,0,1,.072.62,1.043,1.043,0,0,0,.072.62.939.939,0,0,1-.144.837.89.89,0,0,0-.144.62c.144.043.159.159.072.346-.1.231-.115.375-.072.418.043.231-.087.418-.375.563a.69.69,0,0,1-.793-.072,8.2,8.2,0,0,0-.909-.418c-.144,0-.2-.144-.2-.418,0-.188,0-.274-.029-.274s-.1.087-.245.274a.445.445,0,0,1-.563.144.864.864,0,0,1-.49-.49c0-.043-.072-.144-.2-.274-.1-.043-.159-.2-.173-.49s0-.418.1-.418.072-.087-.072-.274a2.6,2.6,0,0,1-.2-1.255,1.765,1.765,0,0,1,.346-1.255Z" transform="translate(23.797 7.017)"/>
        <path id="Path_39598" data-name="Path 39598" d="M64.555,21.222a2.244,2.244,0,0,0,.418-.692.315.315,0,0,1,.216-.346c.188-.043.274-.2.274-.49s.087-.447.274-.49q.346-.13.346-.346a.632.632,0,0,1,.2-.346l.274-.274a1.112,1.112,0,0,0,.2-.274,1.177,1.177,0,0,1,.62-.49c.043,0,.087,0,.1-.029a.122.122,0,0,1,.1-.029l.072-.072c0-.087.087-.2.245-.346a.683.683,0,0,1,.447-.2,2.244,2.244,0,0,0,.692-.418c.462-.462.793-.563.981-.274.087.087.173.115.245.072s.1-.159.1-.346c0-.087.115-.188.346-.274a.772.772,0,0,1,.62,0,.37.37,0,0,0,.274-.144c0-.188.087-.231.274-.144.144,0,.2-.029.2-.072.087-.144.3-.173.62-.1a3.4,3.4,0,0,1,.966.389,3.466,3.466,0,0,1,.837.664.782.782,0,0,1,.274.664c-.1.231-.043.3.144.2.144-.043.216.043.216.274q-.151.411,0,.563c.188.375.043.563-.418.563-.188,0-.274.043-.274.144,0,.144-.087.188-.245.144a1.545,1.545,0,0,1-.591-.418c-.563-.5-.966-.577-1.255-.2a1.424,1.424,0,0,1-.563.274c-.274.087-.418.188-.418.274a.191.191,0,0,1-.216.216.506.506,0,0,0-.49.274c-.188.188-.332.274-.418.274s-.231.087-.418.274a.818.818,0,0,1-.274.274,1.81,1.81,0,0,0-.346.274c-.317.188-.462.332-.418.418a2.131,2.131,0,0,1-.346.692,2.893,2.893,0,0,1-.346.447q-.216.238-.346.389a2.965,2.965,0,0,0-.447,1.7,2.9,2.9,0,0,0,.389,1.774q.346.5.346.346c0-.144.087-.072.274.2.188.188.447.4.764.664a1.649,1.649,0,0,0,.62.389c.043,0,.188.115.418.346.144.231.274.346.418.346a.87.87,0,0,1,.418.245,4.957,4.957,0,0,1,.591.62q.3.389.563.736a3.007,3.007,0,0,1,.317.563,3.731,3.731,0,0,1,.1,1.183,5.834,5.834,0,0,1-.2,1.284,4.729,4.729,0,0,1-.418,1.01c-.159.274-.332.418-.519.418-.043,0-.115.144-.216.418q-.216.346-.346.346l-.2.346q-.13.346-.346.346c-.144,0-.346.188-.62.563-.332.332-.5.49-.563.49-.1,0-.274.144-.563.418-.606.5-1,.822-1.183.938a2.208,2.208,0,0,1-.49.245c-.188,0-.274.072-.274.216a.23.23,0,0,1-.144.072.2.2,0,0,1-.144.072.489.489,0,0,0-.2.072c-.332.144-.49.231-.49.274s-.087.087-.274.1a3.963,3.963,0,0,1-.591.029,4.465,4.465,0,0,1-.62-.029.848.848,0,0,1-.375-.1.947.947,0,0,1-.144-.418.349.349,0,0,0-.144-.274c-.144-.043-.159-.159-.072-.346a.9.9,0,0,1,.49-.418.918.918,0,0,0,.563-.418c.087-.188.188-.274.274-.274.188,0,.5-.231.981-.692q.628-.563,1.428-1.255c.534-.462.909-.808,1.154-1.039.274-.274.375-.447.274-.49,0-.144.115-.317.346-.563s.317-.375.274-.418a.269.269,0,0,1,.072-.144l.216-.2c.274-.188.375-.317.274-.418a.3.3,0,0,1,.072-.346.172.172,0,0,0,.1-.216.183.183,0,0,0-.173-.144c-.087,0-.231-.087-.418-.274-.144-.231-.274-.317-.418-.274-.1,0-.231-.087-.418-.274-.187-.231-.346-.317-.49-.274s-.346-.072-.62-.346a1.346,1.346,0,0,0-.966-.418,2.207,2.207,0,0,0-.418-.1.355.355,0,0,1-.274-.173l-.216-.216c0,.087-.1.072-.317-.072s-.476-.317-.793-.563-.49-.418-.49-.563-.1-.2-.274-.2a.391.391,0,0,1-.346-.216c0-.188-.072-.274-.2-.274-.043,0-.072-.2-.072-.62,0-.375-.043-.606-.144-.692-.144-.087-.173-.274-.1-.563A8.481,8.481,0,0,1,63.1,23.6a9.664,9.664,0,0,1,.62-1.212,8.819,8.819,0,0,1,.793-1.111Z" transform="translate(27.848 6.686)"/>
        <path id="Path_39599" data-name="Path 39599" d="M82.742,34.916c.231-.231.346-.389.346-.49s.13-.26.389-.49.433-.346.519-.346q.216,0,.346-.346a.646.646,0,0,1,.274-.346,9.655,9.655,0,0,1,1.039-.49c.274-.087.375-.188.274-.274-.043-.087.043-.26.274-.49s.389-.346.49-.346l.418-.274a13.922,13.922,0,0,1,1.154-.981,3.482,3.482,0,0,1,.938-.62.129.129,0,0,0,.144-.144.177.177,0,0,1,.2-.2c.13,0,.346-.144.62-.418.144-.087.274-.188.418-.274a1.81,1.81,0,0,0,.346-.274,3.877,3.877,0,0,0,.692-.346,2.536,2.536,0,0,1,.62-.144c.188.043.274-.029.274-.216,0-.231.087-.346.274-.346a.728.728,0,0,0,.447-.2c.159-.144.245-.26.245-.346s.087-.144.274-.144a1.485,1.485,0,0,0,.563-.274l.418-.274a3.625,3.625,0,0,0,.49-.274,1.515,1.515,0,0,1,.692-.2.276.276,0,0,0,.346-.144c.043-.188.2-.274.49-.274.231,0,.346-.072.346-.2q0-.13.389-.346c.26-.144.433-.188.519-.144a.129.129,0,0,0,.144-.144.709.709,0,0,1,.49-.144c.375-.043.534-.13.49-.245s-.26-.173-.62-.173c-.418,0-.62.029-.62.072h-.375a5.032,5.032,0,0,1-.736-.072h-.765a.744.744,0,0,0-.418.072,1.672,1.672,0,0,1-.49-.072,1.525,1.525,0,0,1-.346-.029.649.649,0,0,0-.346.029.761.761,0,0,1-.563-.216c-.187-.144-.3-.159-.346-.072,0,.087-.087.144-.245.173a.411.411,0,0,1-.389-.1c0-.188-.115-.2-.346-.072-.144,0-.2-.029-.2-.072,0-.144-.115-.159-.346-.072a1.585,1.585,0,0,1-.563-.072.6.6,0,0,1-.2-.029.935.935,0,0,0-.274-.029c-.88-.043-1.443-.231-1.673-.563a.976.976,0,0,0-.62-.346c-.274,0-.534-.188-.765-.563s-.231-.606,0-.692c.087-.087.072-.2-.072-.346a.527.527,0,0,1-.144-.418c.087-.188.072-.274-.072-.274a.447.447,0,0,1-.144-.346c0-.188-.072-.274-.2-.274s-.216-.043-.216-.144v-.144a.39.39,0,0,0-.072-.274A4.573,4.573,0,0,1,86.94,16.7a3.424,3.424,0,0,1,.793-1.385.856.856,0,0,1,.765-.274c.188.043.26-.029.2-.216a.275.275,0,0,1,.029-.389.552.552,0,0,1,.519-.1.319.319,0,0,0,.346-.274c0-.188.072-.274.2-.274s.2-.043.2-.144.087-.144.274-.144.274-.072.274-.216.087-.2.274-.2c.274,0,.418-.043.418-.144a.583.583,0,0,1,.418-.144c.5,0,.721-.144.62-.418-.043-.144.072-.2.346-.2a1.07,1.07,0,0,0,.765-.346,2.031,2.031,0,0,1,.981-.49l.563-.274c0-.087.144-.188.447-.274a1.072,1.072,0,0,1,.591-.072c.087.087.3,0,.62-.274a2.154,2.154,0,0,1,1.111-.49,1.838,1.838,0,0,0,.909-.346.8.8,0,0,1,.563-.274.559.559,0,0,0,.563-.317,3.86,3.86,0,0,0,.144-1.284,2.887,2.887,0,0,1,.144-1.457,1.232,1.232,0,0,0,.144-.49c0-.144-.043-.2-.144-.2-.043,0-.072-.115-.072-.346a2.833,2.833,0,0,0,.144-.837,1.839,1.839,0,0,1,.49-.981c.274-.274.375-.462.274-.563s-.087-.216,0-.389a.4.4,0,0,1,.346-.245c.188,0,.231-.043.144-.144-.188-.087-.274-.332-.245-.736s.13-.635.317-.736c.188,0,.274-.072.274-.216,0-.418.274-.5.837-.274.317.188.534.231.62.144S103.3.209,103.3.4a.58.58,0,0,0,.2.49,2.027,2.027,0,0,1,.144.837,1.6,1.6,0,0,0,.144.765.416.416,0,0,1,.072.274,2.365,2.365,0,0,0,.072.49,3.054,3.054,0,0,0,.144,1.039,1.376,1.376,0,0,1-.072.62,1.181,1.181,0,0,0-.072.563V7.523c0,.3.029.447.072.447a.129.129,0,0,0,.144-.144.961.961,0,0,1,.62-.144c.375,0,.563-.043.563-.144s.087-.144.274-.173a2.314,2.314,0,0,1,.62.029.807.807,0,0,0,.62-.144,1.2,1.2,0,0,1,.837-.2c.375,0,.563-.029.563-.072s.144-.072.418-.072c.274.087.418.072.418-.072,0-.188.26-.231.765-.144.274.087.418.087.418,0a.744.744,0,0,1,.418-.072h.692a1.99,1.99,0,0,0,.375-.029,2.484,2.484,0,0,1,.447-.029h.418a.39.39,0,0,1,.274.072c.144.043.2.029.2-.072q0-.216.173-.216a.431.431,0,0,1,.317.144.489.489,0,0,0,.49.144,1.648,1.648,0,0,1,1.082-.072c.447.087.664.231.664.418.043,0,.072.043.072.144v.072s.029.058.072.029a.638.638,0,0,0,.144-.173.405.405,0,0,1,.245-.144c.072,0,.2.087.389.274.606.606.678,1.1.2,1.457a1,1,0,0,0-.346.692c0,.188-.043.3-.144.346a2.033,2.033,0,0,1-.765,0c-.375,0-.563.043-.563.144s-.188.144-.563.144a2.668,2.668,0,0,0-.909.144,3,3,0,0,1-.909.144,12.925,12.925,0,0,0-1.5.245c-.534.115-.822.216-.866.317a.96.96,0,0,1-.62.144,1.447,1.447,0,0,0-.692.144.961.961,0,0,1-.62.144c-.274.043-.707.144-1.284.274s-.894.26-.938.346a.551.551,0,0,1-.346.072c-.188-.043-.274-.029-.274.072,0,.043-.087.072-.274.072-.188-.087-.274-.087-.274,0,0,.144-.188.2-.563.2-.375.043-.563.216-.563.49a3.154,3.154,0,0,1-.2,1.529c-.144.144-.144.231,0,.274.043,0,.087.144.144.418a5.807,5.807,0,0,1,.072.909c0,.332,0,.635-.029.938a2.217,2.217,0,0,1-.1.591.177.177,0,0,0,0,.274c.144,0,.159.2.072.62,0,.188,0,.49-.029.909a2.085,2.085,0,0,1-.173.837c-.188.418.231.62,1.255.62.274.043.548.087.793.1a1.875,1.875,0,0,1,.519.1,1.109,1.109,0,0,0,.563.2.5.5,0,0,1,.563.563c0,.274.115.3.346.072.144-.144.274-.087.418.144a1.186,1.186,0,0,1,.274.765.866.866,0,0,1-.2.62.37.37,0,0,0-.144.274c.043,0,.029.029-.029.072a2.372,2.372,0,0,1-.317.144c-.231.144-.346.231-.346.274q0,.216-.692.346c-.043,0-.087,0-.1.029a.122.122,0,0,1-.1.029.478.478,0,0,1-.346.144.506.506,0,0,0-.49.274.432.432,0,0,1-.418.274,2.265,2.265,0,0,0-.692.274.976.976,0,0,1-.62.346c-.1,0-.144.087-.144.274a.813.813,0,0,1-.2.563.42.42,0,0,0,0,.563,1.521,1.521,0,0,1,.173.62,1.178,1.178,0,0,1-.1.692c-.087.188-.115.3-.072.346.144,0,.159.332.072.981,0,.231,0,.577-.029,1.039a3.066,3.066,0,0,1-.173.981.177.177,0,0,0,0,.274c.144,0,.2.087.2.274a.576.576,0,0,0,.49.317.723.723,0,0,0,.62-.245.827.827,0,0,1,.389-.2,3.712,3.712,0,0,1,.866-.072c.649,0,.981-.043.981-.144,0-.144.144-.2.418-.2a3.833,3.833,0,0,0,.981-.144,2.231,2.231,0,0,1,.765,0,.331.331,0,0,0,.49,0,.672.672,0,0,1,.62-.144c.231,0,.346-.043.346-.144s.2-.115.62-.072a3.97,3.97,0,0,1,.966.2c.188.144.274.144.274,0,.043-.087.173-.1.375-.029s.317.144.317.245.087.216.274.389.317.245.418.245.115.087.072.245a3.461,3.461,0,0,1-.2.519.446.446,0,0,1-.418.274c-.188,0-.26.072-.2.2q.13.346-1.6.563c-.418.087-.62.159-.62.2,0,.087-.144.144-.418.144s-.418.029-.418.072-.115.1-.346.173-.5.144-.793.216-.606.13-.909.173a5.553,5.553,0,0,1-.664.072,7.4,7.4,0,0,0-.736.144c-.2.043-.317.115-.317.2,0,.043-.274.13-.793.245s-.966.2-1.284.245a.216.216,0,0,0-.245.173,12.189,12.189,0,0,0,.029,1.356c.043.923.072,1.558.072,1.875a3.908,3.908,0,0,0,.144,1.039,1.205,1.205,0,0,1,.029.519c-.029.216-.058.433-.1.664a6.839,6.839,0,0,0-.144,1.457,4.857,4.857,0,0,1-.245,1.183c-.115.332-.245.49-.375.49-.1,0-.144.072-.144.2a.447.447,0,0,0,.144.346q.281.216-.173.389a1.062,1.062,0,0,1-.866-.029,1.163,1.163,0,0,1-.591-.563.986.986,0,0,1-.173-.692c.087-.231.072-.389-.072-.49a16.744,16.744,0,0,1-.2-1.875V40.9a2.237,2.237,0,0,1-.072-.49c-.1-.087-.144-.375-.144-.837a2.284,2.284,0,0,0-.144-.981.772.772,0,0,1,0-.62c.087-.274.087-.418,0-.418s-.144-.144-.144-.418c0-.231-.043-.389-.144-.447s-.188-.029-.274.1a1.32,1.32,0,0,1-.765.144c-.462,0-.692.072-.692.2,0,.087-.072.115-.216.072a1.007,1.007,0,0,1-.418-.144c-.087-.087-.144-.043-.144.144,0,.087-.3.159-.909.2-.606,0-.952.043-1.039.144a.478.478,0,0,1-.346.144,2.919,2.919,0,0,0-.447.029c-.216.029-.447.058-.736.1-.231.043-.548.087-.938.144a9.707,9.707,0,0,1-1.01.072c-.5.043-.894.087-1.154.1s-.635.087-1.154.173c-.375.043-.88.087-1.529.1s-1.3.029-1.947,0-1.226-.072-1.745-.144a2.585,2.585,0,0,1-.966-.245c-.231-.188-.389-.231-.49-.144-.1.043-.231-.043-.418-.274s-.231-.389-.144-.49c.043-.144,0-.159-.144-.072a.268.268,0,0,1-.346-.173,1.681,1.681,0,0,1-.173-.591,3.383,3.383,0,0,1,0-.765,1.33,1.33,0,0,1,.245-.692Zm8.424.072a4.38,4.38,0,0,1,.793-.173,1.875,1.875,0,0,0,.519-.1c.418-.087.923-.188,1.529-.274a2.986,2.986,0,0,1,.981-.072.285.285,0,0,0,.2-.072c.144-.144.231-.159.274-.072a.39.39,0,0,0,.274-.072l.144-.072s.26-.043.62-.144a4.466,4.466,0,0,1,.793-.144,3.3,3.3,0,0,0,.793-.144,2.206,2.206,0,0,1,.418-.1.566.566,0,0,0,.274-.1,2.028,2.028,0,0,1,.837-.144,1.441,1.441,0,0,0,.909-.447.516.516,0,0,0,.072-.736q-.13-.065,0-.563a.5.5,0,0,0,0-.62,8.156,8.156,0,0,1-.2-1.529V27.877c-.043-.087-.173-.115-.375-.072s-.317.115-.317.2c0,.188-.159.3-.49.346s-.49,0-.49-.144c0-.087-.072-.029-.2.2-.1.332-.2.49-.346.49-.1,0-.2.072-.346.216a1.232,1.232,0,0,1-.49.144c-.231-.043-.346,0-.346.144,0,.188-.26.346-.765.49-.231.087-.447.188-.664.274a1.5,1.5,0,0,0-.447.274.6.6,0,0,1-.49.346,1.1,1.1,0,0,0-.346.144,2.273,2.273,0,0,1-.447.317,1.112,1.112,0,0,1-.447.173c-.087,0-.26.115-.49.346a.976.976,0,0,1-.62.346c-.144,0-.2.043-.2.144s-.072.144-.216.144a5.527,5.527,0,0,0-.837.49c-.188.144-.389.274-.591.418a2.036,2.036,0,0,1-.519.274c-.274.188-.418.3-.418.346a.38.38,0,0,1-.2.274c-.981.332-1.226.577-.765.765a5.922,5.922,0,0,0,2.64,0Zm.418-16a.712.712,0,0,1,.49.2c.188.188.274.216.274.072,0-.087.144-.087.418,0a3.121,3.121,0,0,0,.765.173,7.7,7.7,0,0,1,.966.173,1.672,1.672,0,0,1,.49.072,1.315,1.315,0,0,1,.346.144,2.028,2.028,0,0,0,.837.144c.375,0,.563.043.563.144s.043.087.144,0a.494.494,0,0,1,.447-.072.862.862,0,0,1,.447.2.172.172,0,0,0,.216.1.183.183,0,0,0,.144-.173c0-.087.087-.115.274-.072a4.39,4.39,0,0,0,1.385.173c.375-.029.433-.13.2-.317-.187,0-.187-.144,0-.418.087-.231.087-.389,0-.49a2.3,2.3,0,0,1-.1-.837c-.029-.5-.029-1.1-.029-1.745a18.363,18.363,0,0,0,.029-1.919q-.043-.519-.173-.519c-.087,0-.144.029-.144.072,0,.144-.188.2-.563.2-.375.087-.563.159-.563.2s-.144.144-.418.274a5.771,5.771,0,0,0-.692.274c-.231.087-.49.188-.765.274-.332.087-.49.2-.49.346,0,.043-.2.159-.62.346-.144.087-.274.173-.418.245l-.346.173c-.043.087-.231.188-.563.274-.087.043-.231.115-.418.216a.92.92,0,0,0-.418.346c-.332.332-.534.49-.62.49-.144,0-.2.043-.2.144,0,.043-.072.072-.2.072-.1,0-.231.087-.418.274a.618.618,0,0,1-.418.346c-.144.043-.188.115-.144.216a.27.27,0,0,0,.274.144Z" transform="translate(36.593 0.017)"/>
        <path id="Path_39600" data-name="Path 39600" d="M116.733,47.726c.231,0,.317-.087.274-.274-.043-.144.087-.317.418-.519a3.151,3.151,0,0,1,1.039-.447c.317-.087.49-.188.49-.274,0-.144.043-.216.144-.216a2.265,2.265,0,0,0,.692-.274l.692-.274c.144,0,.2-.043.2-.144s.072-.144.216-.144a.632.632,0,0,0,.418-.2,1.637,1.637,0,0,1,.692-.274c.375,0,.606-.087.692-.274s.2-.274.346-.274.2-.043.2-.144.043-.144.144-.144a.813.813,0,0,0,.563-.2.714.714,0,0,1,.563-.144c.087.043.26-.043.49-.274a1.791,1.791,0,0,1,.765-.62,2.264,2.264,0,0,1,.909-.346.177.177,0,0,0,.2-.2,3.034,3.034,0,0,1,.765-.49,2.967,2.967,0,0,0,.563-.346,5.376,5.376,0,0,1,.49-.346.86.86,0,0,1,.692-.346c.231.043.375-.029.418-.216a.446.446,0,0,1,.274-.418c.188-.1.274-.188.274-.274,0-.144.029-.216.072-.216.144,0,.375-.159.692-.49.274-.375.534-.563.765-.563.144,0,.2-.072.2-.216a1.869,1.869,0,0,1,.346-.837,3.856,3.856,0,0,0,.49-1.039,1.733,1.733,0,0,0-.144-.909,4.622,4.622,0,0,0-.764-1.6.709.709,0,0,1-.144-.49c0-.317-.072-.447-.2-.346-.187.043-.389-.2-.62-.765a.239.239,0,0,0-.274-.274c-.1,0-.187-.072-.274-.2a1.951,1.951,0,0,0-.418-.591,7.39,7.39,0,0,0-.764-.736c-.274-.231-.548-.447-.793-.62a1.65,1.65,0,0,0-.447-.274c-.1.043-.274,0-.563-.1a1.869,1.869,0,0,1-.563-.317.129.129,0,0,0-.144-.144h-.072a.739.739,0,0,1-.346-.216c-.087-.188-.187-.274-.274-.274-.144,0-.2-.043-.2-.144s-.043-.087-.144,0a.675.675,0,0,1-.418,0c-.274-.087-.663-.245-1.14-.447a2.477,2.477,0,0,1-.938-.591c-.043-.144-.159-.2-.346-.2-.144.087-.346,0-.62-.274a1.142,1.142,0,0,1-.418-.692c0-.144-.043-.144-.144,0q-.216.281-.346,0c-.087-.188-.115-.3-.072-.346h-.072q0-.13-.216,0c-.5,0-.765-.231-.765-.692a.506.506,0,0,0-.274-.49c-.187-.087-.274-.087-.274,0l-.2-.216a.6.6,0,0,1-.274-.49c0-.144-.043-.2-.144-.2s-.144-.072-.144-.216a2.893,2.893,0,0,0-.49-1.111,2.552,2.552,0,0,1-.418-1.255c0-.274-.043-.418-.144-.418s-.115-.346-.072-1.039c0-.231,0-.649.029-1.255a3.812,3.812,0,0,1,.173-1.183c.188-.087.231-.188.144-.274-.087-.144-.043-.26.144-.346a.573.573,0,0,0,.2-.418.315.315,0,0,1,.216-.346c.087,0,.188-.159.274-.49,0-.274.072-.418.2-.418a.456.456,0,0,1,.2-.2l.418-.62c.188-.231.346-.447.49-.664a1.393,1.393,0,0,1,.346-.389q.281-.281.216-.346c-.043-.043-.029-.144.029-.317s.144-.332.245-.519a1.82,1.82,0,0,0,.418-.765.191.191,0,0,1,.216-.216c.144-.087.2-.159.2-.2-.043-.087.058-.3.317-.62s.534-.664.837-1.01a11.322,11.322,0,0,1,.909-.938c.3-.274.49-.418.591-.418.144,0,.2-.029.2-.072,0-.087.2-.317.591-.692s.635-.563.736-.563c.188,0,.274-.043.274-.144l.144-.072a2.317,2.317,0,0,1,.346-.2c.274-.087.418-.188.418-.274,0-.043.115-.13.346-.245A8.637,8.637,0,0,1,128.518,5c.3-.115.62-.216.967-.317l.865-.216a3.606,3.606,0,0,1,.591-.1,1.584,1.584,0,0,0,.447-.1,2.657,2.657,0,0,1,.765-.029,11,11,0,0,1,1.327.245,2.691,2.691,0,0,1,1.082.418q.39.281.173.563c-.087.144-.043.26.144.346.144.144.159.26.072.346-.144.144-.159.26-.072.346a.177.177,0,0,1-.2.2c-.188,0-.3.029-.346.1s-.029.144.072.245c.087,0,.043.144-.144.418-.274.188-.346.274-.2.274s.1.043-.1.144a1.234,1.234,0,0,1-.519.144.58.58,0,0,0-.49.2c0,.144-.087.216-.274.216a1.833,1.833,0,0,0-.765.2,2.915,2.915,0,0,1-.519.245c-.2.072-.389.13-.519.173-.317,0-.49.043-.49.144a1.635,1.635,0,0,1-.591.447,1.714,1.714,0,0,1-.664.245c-.144,0-.346.144-.62.418-.188.274-.375.418-.563.418a.391.391,0,0,0-.346.216c0,.188-.072.274-.2.274-.043,0-.159.087-.346.274-.418.375-.692.563-.837.563a.129.129,0,0,0-.144.144,1.433,1.433,0,0,1-.317.447,9.921,9.921,0,0,1-.793.866c-.332.274-.606.534-.837.765s-.346.375-.346.418c0,.144-.1.231-.274.274-.144.043-.2.159-.2.346s-.072.274-.2.274a.274.274,0,0,0-.216.274c0,.13-.144.26-.418.346a.886.886,0,0,0-.49.692c0,.332-.072.49-.2.49q-.065,0,0,.216a1.721,1.721,0,0,1-.2.692,3.891,3.891,0,0,0-.245,1.385c-.029.649.029.981.173.981.087,0,.274.144.563.418s.418.462.418.563c0,.043.1.159.317.346a7.483,7.483,0,0,0,.765.591,8.959,8.959,0,0,0,.938.563c.317.159.577.289.765.389a2.42,2.42,0,0,1,.447.274,7.368,7.368,0,0,0,.793.49,1.016,1.016,0,0,0,.346.216.526.526,0,0,1,.274.144.446.446,0,0,1,.418.274.4.4,0,0,0,.418.144c.087-.087.231-.072.418.072a1.491,1.491,0,0,1,.418.49c.043.144.144.144.274,0a.177.177,0,0,1,.274,0,2.184,2.184,0,0,0,.418.245c.231.115.49.245.764.389a16.757,16.757,0,0,1,1.774,1.082c.346.26.49.476.447.664s.043.26.274.2a.831.831,0,0,1,.692.418,3.106,3.106,0,0,1,.274.317c.087.115.159.173.2.173a.573.573,0,0,1,.2.418c0,.418.144.62.418.62.087,0,.188.087.274.245a.551.551,0,0,1,0,.519c-.043.144,0,.216.144.216a.38.38,0,0,1,.274.2,3.689,3.689,0,0,1,.346.837c.087.274.188.418.274.418s.159.1.2.317.087.447.144.736a5.529,5.529,0,0,1,.072.866,2.407,2.407,0,0,1-.072.664,1.22,1.22,0,0,0,0,.563c.144.144.115.274-.072.418a.407.407,0,0,0-.072.49c.087.188.087.332,0,.418-.144.043-.2.159-.2.346a2.078,2.078,0,0,1-.317.793,5.874,5.874,0,0,1-.447.736.315.315,0,0,0-.216.346c0,.231-.2.563-.62.981-.462.5-.764.851-.909,1.01a4.189,4.189,0,0,0-.418.591,10.317,10.317,0,0,1-.736.837c-.346.375-.721.736-1.111,1.111s-.765.692-1.111.981-.563.418-.664.418-.187.087-.274.274-.346.317-.765.418a2.61,2.61,0,0,0-.692.274.532.532,0,0,1-.346.144c-.187,0-.274.072-.274.216s-.087.2-.274.2a.813.813,0,0,0-.563.2.536.536,0,0,1-.563.346c-.087.043-.274.13-.519.245s-.519.216-.793.317a3.07,3.07,0,0,1-1.255.49,1.166,1.166,0,0,1-.317.1.767.767,0,0,0-.317.173.731.731,0,0,1-.563.2,2.1,2.1,0,0,0-.765.274,2.073,2.073,0,0,1-1.039.274c-.375-.087-.563-.043-.563.144,0,.087-.115.144-.346.144a4.851,4.851,0,0,1-.563.072.349.349,0,0,0-.274.144c-.087.087-.26.043-.49-.144a2.625,2.625,0,0,0-.317-.144c-.029,0-.087.043-.173.144q-.13.281-.346,0c-.144-.144-.26-.188-.346-.144-.087,0-.26-.231-.49-.692-.317-.736-.2-1.111.346-1.111ZM126.2,8.836c.317.144.447.144.346,0a.478.478,0,0,0-.346-.144C126.052,8.692,126.052,8.735,126.2,8.836ZM127.653,8a1.253,1.253,0,0,0,.62-.274c.317-.188.476-.289.447-.317s-.216.058-.591.245c-.5.231-.678.346-.49.346Zm2.02-.981c.188,0,.231-.043.144-.144a.169.169,0,0,0-.274,0c-.1.087-.043.144.144.144Z" transform="translate(51.502 1.891)"/>
        <path id="Path_39601" data-name="Path 39601" d="M131.972,29.579a.331.331,0,0,0,0-.49,1.1,1.1,0,0,1,.072-.837,4.523,4.523,0,0,0,.144-.765.39.39,0,0,1,.072-.274c.043-.087.087-.2.144-.346a1.067,1.067,0,0,0,.072-.418,7.439,7.439,0,0,1,.245-.981c.115-.375.245-.736.375-1.111s.274-.692.418-.981a1.309,1.309,0,0,1,.346-.49.456.456,0,0,0,.216-.418,1.3,1.3,0,0,1,.274-.692,2.374,2.374,0,0,0,.317-.418,2.232,2.232,0,0,1,.317-.418q.281-.563.563-.563c.188-.087.274-.159.274-.216a.54.54,0,0,1,.029-.389c.072-.159.144-.245.245-.245a.177.177,0,0,0,.2-.2.911.911,0,0,1,.692-.692c.043,0,.115-.087.2-.274a.306.306,0,0,1,.346-.346c.188-.087.274-.159.274-.2,0-.144.2-.375.591-.692a2.219,2.219,0,0,1,.736-.49q.216.065.346-.216c.087-.188.332-.317.736-.418s.635-.087.736,0c.144.043.2,0,.2-.144,0-.231.317-.245.981-.029a4.464,4.464,0,0,1,1.6.866,10.708,10.708,0,0,1,.837.909.843.843,0,0,1,.216.49c0,.188.072.274.2.274.087,0,.188.115.274.346s.188.49.274.765a5.414,5.414,0,0,1,.2.866,1.659,1.659,0,0,1,0,.664.893.893,0,0,0,.072.62c.087.087.1.332.029.692s-.173.606-.317.692c-.144.144-.188.231-.144.274.043.087-.029.346-.245.765a1.955,1.955,0,0,1-.519.765.432.432,0,0,0-.274.418.945.945,0,0,1-.2.418,4.612,4.612,0,0,1-.519.563c-.216.188-.4.361-.591.519a.824.824,0,0,1-.49.245c-.274.087-.389.188-.346.274,0,.144-.087.231-.274.274-.231.087-.346.159-.346.2,0,.087-.274.26-.793.49s-.866.332-1.01.274c-.188-.087-.332-.087-.418,0-.187.188-.563.231-1.111.144s-.837-.26-.837-.49c0-.144-.072-.144-.2,0a.616.616,0,0,1-.519.072q-.389-.065-.389-.216c0-.1-.043-.144-.144-.144-.043,0-.072.043-.072.144a.138.138,0,0,1-.029.245,1.546,1.546,0,0,1-.519.173c-.375.043-.563.3-.563.765,0,.332-.043.534-.144.62q-.065.065,0,.216a1.411,1.411,0,0,1,.1.49c.029.231.058.49.1.765a6.509,6.509,0,0,0,.072.938,3.131,3.131,0,0,0,.144.664.811.811,0,0,1,.144.418v.274a.632.632,0,0,0,.2.418,1.424,1.424,0,0,1,.274.563c.043.087.087.2.144.317a2.123,2.123,0,0,0,.144.317,1.067,1.067,0,0,1,.418.62q.13.346.346.346t.346.346a.6.6,0,0,0,.49.346.985.985,0,0,1,.317.072,2.121,2.121,0,0,1,.317.144c.144.144.2.188.2.144,0-.087.087-.144.245-.144h.591a2.949,2.949,0,0,0,1.327-.274c.144-.043.274-.087.418-.144a1.342,1.342,0,0,1,.346-.072.548.548,0,0,0,.418-.144c0-.087.087-.144.274-.144A.744.744,0,0,0,142.7,36a.739.739,0,0,1,.563-.216c.245,0,.346-.072.346-.2,0-.188.13-.332.389-.447a.725.725,0,0,1,.664-.029c.375.188.534.087.49-.274a.691.691,0,0,1,.1-.418,1.081,1.081,0,0,1,.447-.274q.563-.346.563-.563a.177.177,0,0,1,.2-.2.663.663,0,0,0,.418-.2q.13-.216.563-.216a4.231,4.231,0,0,1,.49-.144c.418-.274.678-.159.764.346,0,.274.087.418.274.418.317.087.2.49-.346,1.183a3.656,3.656,0,0,0-.418.62c0,.144-.029.2-.072.2,0,.087-.115.188-.346.274a.4.4,0,0,0-.274.346.425.425,0,0,1-.274.346c-.188.188-.274.3-.274.346,0,.087-.1.216-.317.389a.984.984,0,0,1-.447.245c-.144,0-.2.043-.2.144a1.2,1.2,0,0,1-.2.346,2.948,2.948,0,0,1-.519.519,6.532,6.532,0,0,0-.563.49,1.964,1.964,0,0,1-.389.317,1.679,1.679,0,0,1-.49.346,4.973,4.973,0,0,0-.49.274c-.274.087-.418.159-.418.2,0,.087-.115.144-.346.144a.632.632,0,0,0-.418.2.315.315,0,0,1-.346.216c-.188,0-.274.043-.274.144a1.1,1.1,0,0,1-.692.144c-.375,0-.606.043-.692.144a1.178,1.178,0,0,1-.62.173,7.409,7.409,0,0,1-1.111-.029,2.433,2.433,0,0,1-1.039-.418c-.144-.231-.274-.274-.418-.144a.206.206,0,0,1-.317-.029.345.345,0,0,1-.029-.447c.043-.144-.1-.159-.418-.072-.188.144-.3.087-.346-.144,0-.188-.072-.2-.2-.072-.087.087-.2.072-.317-.072a.873.873,0,0,1-.173-.563c0-.144-.087-.188-.274-.144-.144.043-.3-.043-.49-.274a.917.917,0,0,1-.2-.317c-.043-.115-.115-.173-.2-.173a.527.527,0,0,1-.144-.418c0-.144-.043-.2-.144-.2s-.144-.144-.144-.418c0-.317-.072-.447-.216-.346-.087.043-.188,0-.274-.173a.651.651,0,0,1-.072-.519c0-.144-.029-.216-.072-.216-.087,0-.188-.2-.274-.62a2.61,2.61,0,0,1-.2-.62,2.409,2.409,0,0,0-.2-.62c-.043-.188-.087-.447-.144-.765a6.783,6.783,0,0,1-.072-.909,4.853,4.853,0,0,1-.072-.736.69.69,0,0,0-.072-.389v-.938a4.36,4.36,0,0,1,.029-.62.937.937,0,0,1,.1-.389Zm5.222-4.313a1.365,1.365,0,0,0,.245-.144.447.447,0,0,1,.245-.072c.188,0,.274-.043.274-.144s.159-.2.49-.346a5.371,5.371,0,0,0,.49-.346,5.373,5.373,0,0,1,.49-.346c.274-.274.462-.418.563-.418.043,0,.072-.043.072-.144-.043-.043,0-.144.144-.274a.634.634,0,0,0,.418-.418,6.5,6.5,0,0,1,.765-1.255,2.384,2.384,0,0,0,.447-1.5c-.029-.534-.216-.793-.591-.793a4.444,4.444,0,0,0-1.111.2q-.692.216-.692.346h-.072a.49.49,0,0,1-.2.072c-.144,0-.375.2-.692.62a2.039,2.039,0,0,1-.346.519q-.216.238-.346.389l-.2.2a.6.6,0,0,1-.072.144,3.533,3.533,0,0,1-.173.447c-.072.159-.13.245-.173.245-.1,0-.26.26-.49.765a3.132,3.132,0,0,0-.346,1.111,1.862,1.862,0,0,0,.274,1.212c.188.216.39.173.62-.1Zm1.039,14.05.072-.144a.129.129,0,0,0-.144.144l-.072.144A.129.129,0,0,0,138.233,39.316Zm.49-.2.072.072.072-.072s-.029-.072-.072-.072A.068.068,0,0,0,138.723,39.114Zm1.673-.072.072-.072s-.029-.072-.072-.072a.068.068,0,0,0-.072.072Zm1.111-13.848s.115-.13.2-.245a1.268,1.268,0,0,1,.418-.317c.317-.231.49-.418.49-.563a1.1,1.1,0,0,0,.144-.216,1.68,1.68,0,0,1,.346-.49c.317-.418.447-.678.346-.765-.043-.144-.087-.2-.1-.173s-.13.2-.317.519a1.688,1.688,0,0,1-.692.909c-.274.188-.375.346-.274.49,0,.144-.029.2-.072.2a2.449,2.449,0,0,0-.764.563c-.418.375-.62.606-.62.692s.144.029.418-.173a2.264,2.264,0,0,0,.49-.447Z" transform="translate(58.463 6.955)"/>
        <path id="Path_39602" data-name="Path 39602" d="M145.575,28.859q.476-.346,0-.346-.13,0-.173-.173a6.5,6.5,0,0,1-.029-.938,4.138,4.138,0,0,1,.029-.793,2.6,2.6,0,0,1,.173-.317c.188-.087.216-.2.072-.346a2.019,2.019,0,0,1-.1-.765c-.029-.462-.029-.981-.029-1.529a10.6,10.6,0,0,1,.1-1.558,8.146,8.146,0,0,1,.173-.938q.13-.216,0-.346c-.1-.087-.13-.289-.1-.591a4.185,4.185,0,0,1,.173-.866c.087-.375.115-.577.072-.62-.087-.043-.13-.216-.1-.519a1.615,1.615,0,0,1,.173-.664,3.594,3.594,0,0,0,.144-1.255c0-.793.043-1.745.144-2.856s.188-1.919.274-2.438V9.4a2.156,2.156,0,0,1,.029-.317,3.594,3.594,0,0,0,.029-.591,8.174,8.174,0,0,1,.144-.981,3.738,3.738,0,0,1,.418-.981,4.222,4.222,0,0,0,.346-1.6c.144-.144.144-.2,0-.2a.424.424,0,0,1-.029-.447.646.646,0,0,1,.245-.389c.144-.043.159-.188.072-.418a.644.644,0,0,1-.029-.563c.072-.188.173-.274.317-.274s.115-.087-.072-.274a.586.586,0,0,1,.029-.692.624.624,0,0,1,.664-.274.889.889,0,0,0,.418.029c.043-.029.029-.144-.072-.389-.043-.231-.058-.361-.029-.389s.144,0,.389.029a.435.435,0,0,1,.49.49c.043.332.115.49.216.49.231,0,.289.274.173.793A2.327,2.327,0,0,1,149.8,3.6c-.043.144-.029.2.072.2.043,0,.072.043.072.144a.961.961,0,0,0-.144.62.67.67,0,0,1-.346.62c-.188.087-.2.159-.072.2a.524.524,0,0,1,.245.346,5.522,5.522,0,0,1-.1,1.255,6.931,6.931,0,0,0-.144,1.529c-.087.88-.144,1.457-.144,1.7a.7.7,0,0,1-.144.519,3.525,3.525,0,0,0-.144,1.327c-.043.649-.087,1.082-.1,1.284a1.3,1.3,0,0,1-.173.519.744.744,0,0,0,.072.418c.087.144.115.231.072.274a3.478,3.478,0,0,0-.144.909c-.043.563-.072,1.183-.072,1.875a1.442,1.442,0,0,0,.2.909c.144.043.2.188.2.418q-.13.216,0,.346a6.261,6.261,0,0,1,.072,1.5V24.1c-.043,3.2-.072,5.64-.072,7.3s.029,2.669.072,2.986a2.026,2.026,0,0,1-.072.692q-.13.281,0,.346a4.718,4.718,0,0,1,.144,1.673,5.906,5.906,0,0,0-.029,1.111,1.541,1.541,0,0,0,.1.563v.144a1.829,1.829,0,0,1-.144.346c-.1.332-.1.534,0,.62a.709.709,0,0,1,.144.49,8.6,8.6,0,0,1-.216,1.385,2.086,2.086,0,0,0-.144.736v1.255a3.973,3.973,0,0,0,.072.736c0,.5.043.765.144.765.144,0,.159.2.072.62s-.2.678-.346.765a.448.448,0,0,0-.346.418c0,.144-.087.2-.245.2s-.26-.087-.317-.274a.786.786,0,0,0-.2-.245c-.043-.029-.144.029-.274.173-.087.087-.231-.072-.418-.49a3.379,3.379,0,0,1-.2-.765c.087,0,.043-.2-.144-.62a6.843,6.843,0,0,1-.245-1.457c-.029-.462,0-.736.1-.837.043-.144.029-.231-.072-.274-.087,0-.159-.173-.2-.519s-.072-.563-.072-.664c-.087-.5-.159-.909-.2-1.183a4.786,4.786,0,0,1-.072-.62.666.666,0,0,0-.144-.49,2.162,2.162,0,0,0-.029-.346,2.314,2.314,0,0,1,.029-.62v-.591c0-.159-.029-.245-.072-.245a2.4,2.4,0,0,1-.1-.938c-.029-.62-.058-1.471-.1-2.539,0-.418-.029-.62-.072-.62s-.072-.173-.072-.519a4.943,4.943,0,0,1,.144-1.154,1.3,1.3,0,0,0,0-.837,1.629,1.629,0,0,1-.1-.909c.029-.462.1-.736.245-.837Zm2.582-25.042s.072-.029.072-.072l-.072-.072-.072.072S148.114,3.817,148.157,3.817Z" transform="translate(64.406 0.304)"/>
        <path id="Path_39603" data-name="Path 39603" d="M150.065,28.859q.476-.346,0-.346-.13,0-.173-.173a6.512,6.512,0,0,1-.029-.938,4.147,4.147,0,0,1,.029-.793,2.615,2.615,0,0,1,.173-.317c.188-.087.216-.2.072-.346a2.021,2.021,0,0,1-.1-.765c-.029-.462-.029-.981-.029-1.529a10.6,10.6,0,0,1,.1-1.558,8.139,8.139,0,0,1,.173-.938q.13-.216,0-.346c-.1-.087-.13-.289-.1-.591a4.183,4.183,0,0,1,.173-.866c.087-.375.115-.577.072-.62-.087-.043-.13-.216-.1-.519a1.617,1.617,0,0,1,.173-.664,3.593,3.593,0,0,0,.144-1.255c0-.793.043-1.745.144-2.856s.188-1.919.274-2.438V9.4a2.154,2.154,0,0,1,.029-.317,3.59,3.59,0,0,0,.029-.591,8.175,8.175,0,0,1,.144-.981,3.74,3.74,0,0,1,.418-.981,4.222,4.222,0,0,0,.346-1.6c.144-.144.144-.2,0-.2A.424.424,0,0,1,152,4.279a.645.645,0,0,1,.245-.389c.144-.043.159-.188.072-.418a.644.644,0,0,1-.029-.563c.072-.188.173-.274.317-.274s.115-.087-.072-.274a.586.586,0,0,1,.029-.692.624.624,0,0,1,.664-.274.889.889,0,0,0,.418.029c.043-.029.029-.144-.072-.389-.043-.231-.058-.361-.029-.389s.144,0,.389.029a.435.435,0,0,1,.49.49c.043.332.115.49.216.49.231,0,.289.274.173.793a2.328,2.328,0,0,1-.519,1.154c-.043.144-.029.2.072.2.043,0,.072.043.072.144a.961.961,0,0,0-.144.62.67.67,0,0,1-.346.62c-.188.087-.2.159-.072.2a.524.524,0,0,1,.245.346,5.523,5.523,0,0,1-.1,1.255,6.93,6.93,0,0,0-.144,1.529c-.087.88-.144,1.457-.144,1.7a.7.7,0,0,1-.144.519,3.524,3.524,0,0,0-.144,1.327c-.043.649-.087,1.082-.1,1.284a1.3,1.3,0,0,1-.173.519.744.744,0,0,0,.072.418c.087.144.115.231.072.274a3.481,3.481,0,0,0-.144.909c-.043.563-.072,1.183-.072,1.875a1.442,1.442,0,0,0,.2.909c.144.043.2.188.2.418q-.13.216,0,.346a6.258,6.258,0,0,1,.072,1.5V24.1c-.043,3.2-.072,5.64-.072,7.3s.029,2.669.072,2.986a2.025,2.025,0,0,1-.072.692q-.13.281,0,.346a4.716,4.716,0,0,1,.144,1.673,5.908,5.908,0,0,0-.029,1.111,1.539,1.539,0,0,0,.1.563v.144a1.832,1.832,0,0,1-.144.346c-.1.332-.1.534,0,.62a.709.709,0,0,1,.144.49,8.609,8.609,0,0,1-.216,1.385,2.088,2.088,0,0,0-.144.736v1.255a3.976,3.976,0,0,0,.072.736c0,.5.043.765.144.765.144,0,.159.2.072.62s-.2.678-.346.765a.448.448,0,0,0-.346.418c0,.144-.087.2-.245.2s-.26-.087-.317-.274a.786.786,0,0,0-.2-.245c-.043-.029-.144.029-.274.173-.087.087-.231-.072-.418-.49a3.383,3.383,0,0,1-.2-.765c.087,0,.043-.2-.144-.62a6.833,6.833,0,0,1-.245-1.457c-.029-.462,0-.736.1-.837.043-.144.029-.231-.072-.274-.087,0-.159-.173-.2-.519s-.072-.563-.072-.664c-.087-.5-.159-.909-.2-1.183a4.785,4.785,0,0,1-.072-.62.666.666,0,0,0-.144-.49,2.165,2.165,0,0,0-.029-.346,2.313,2.313,0,0,1,.029-.62v-.591c0-.159-.029-.245-.072-.245a2.4,2.4,0,0,1-.1-.938c-.029-.62-.058-1.471-.1-2.539,0-.418-.029-.62-.072-.62s-.072-.173-.072-.519a4.943,4.943,0,0,1,.144-1.154,1.3,1.3,0,0,0,0-.837,1.63,1.63,0,0,1-.1-.909c.029-.462.1-.736.245-.837Zm2.582-25.042s.072-.029.072-.072l-.072-.072-.072.072S152.6,3.817,152.647,3.817Z" transform="translate(66.393 0.304)"/>
        <path id="Path_39604" data-name="Path 39604" d="M154.442,29.579a.331.331,0,0,0,0-.49,1.1,1.1,0,0,1,.072-.837,4.527,4.527,0,0,0,.144-.765.39.39,0,0,1,.072-.274c.043-.087.087-.2.144-.346a1.067,1.067,0,0,0,.072-.418,7.443,7.443,0,0,1,.245-.981c.115-.375.245-.736.375-1.111s.274-.692.418-.981a1.31,1.31,0,0,1,.346-.49.456.456,0,0,0,.216-.418,1.3,1.3,0,0,1,.274-.692,2.374,2.374,0,0,0,.317-.418,2.23,2.23,0,0,1,.317-.418q.281-.563.563-.563c.188-.087.274-.159.274-.216a.54.54,0,0,1,.029-.389c.072-.159.144-.245.245-.245a.177.177,0,0,0,.2-.2.911.911,0,0,1,.692-.692c.043,0,.115-.087.2-.274a.306.306,0,0,1,.346-.346c.188-.087.274-.159.274-.2,0-.144.2-.375.591-.692a2.219,2.219,0,0,1,.736-.49q.216.065.346-.216c.087-.188.332-.317.736-.418s.635-.087.736,0c.144.043.2,0,.2-.144,0-.231.317-.245.981-.029a4.464,4.464,0,0,1,1.6.866,10.7,10.7,0,0,1,.837.909.843.843,0,0,1,.216.49c0,.188.072.274.2.274.087,0,.188.115.274.346s.188.49.274.765a5.4,5.4,0,0,1,.2.866,1.657,1.657,0,0,1,0,.664.893.893,0,0,0,.072.62c.087.087.1.332.029.692s-.173.606-.317.692c-.144.144-.188.231-.144.274.043.087-.029.346-.245.765a1.956,1.956,0,0,1-.519.765.432.432,0,0,0-.274.418.945.945,0,0,1-.2.418,4.607,4.607,0,0,1-.519.563c-.216.188-.4.361-.591.519a.823.823,0,0,1-.49.245c-.274.087-.389.188-.346.274,0,.144-.087.231-.274.274-.231.087-.346.159-.346.2,0,.087-.274.26-.793.49s-.865.332-1.01.274c-.188-.087-.332-.087-.418,0-.188.188-.563.231-1.111.144s-.837-.26-.837-.49c0-.144-.072-.144-.2,0a.615.615,0,0,1-.519.072q-.389-.065-.389-.216c0-.1-.043-.144-.144-.144-.043,0-.072.043-.072.144a.138.138,0,0,1-.029.245,1.547,1.547,0,0,1-.519.173c-.375.043-.563.3-.563.765,0,.332-.043.534-.144.62q-.065.065,0,.216a1.41,1.41,0,0,1,.1.49c.029.231.058.49.1.765a6.509,6.509,0,0,0,.072.938,3.133,3.133,0,0,0,.144.664.812.812,0,0,1,.144.418v.274a.632.632,0,0,0,.2.418,1.425,1.425,0,0,1,.274.563c.043.087.087.2.144.317a2.129,2.129,0,0,0,.144.317,1.067,1.067,0,0,1,.418.62q.13.346.346.346t.346.346a.6.6,0,0,0,.49.346.985.985,0,0,1,.317.072,2.124,2.124,0,0,1,.317.144c.144.144.2.188.2.144,0-.087.087-.144.245-.144h.591a2.949,2.949,0,0,0,1.327-.274c.144-.043.274-.087.418-.144a1.343,1.343,0,0,1,.346-.072.547.547,0,0,0,.418-.144c0-.087.087-.144.274-.144a.744.744,0,0,0,.49-.274.739.739,0,0,1,.563-.216c.245,0,.346-.072.346-.2,0-.188.13-.332.389-.447a.725.725,0,0,1,.664-.029c.375.188.534.087.49-.274a.691.691,0,0,1,.1-.418,1.081,1.081,0,0,1,.447-.274q.563-.346.563-.563a.177.177,0,0,1,.2-.2.663.663,0,0,0,.418-.2q.13-.216.563-.216a4.24,4.24,0,0,1,.49-.144c.418-.274.678-.159.765.346,0,.274.087.418.274.418.317.087.2.49-.346,1.183a3.654,3.654,0,0,0-.418.62c0,.144-.029.2-.072.2,0,.087-.115.188-.346.274a.4.4,0,0,0-.274.346.425.425,0,0,1-.274.346c-.188.188-.274.3-.274.346,0,.087-.1.216-.317.389a.984.984,0,0,1-.447.245c-.144,0-.2.043-.2.144a1.2,1.2,0,0,1-.2.346,2.949,2.949,0,0,1-.519.519,6.523,6.523,0,0,0-.563.49,1.965,1.965,0,0,1-.389.317,1.679,1.679,0,0,1-.49.346,4.967,4.967,0,0,0-.49.274c-.274.087-.418.159-.418.2,0,.087-.115.144-.346.144a.632.632,0,0,0-.418.2.315.315,0,0,1-.346.216c-.188,0-.274.043-.274.144a1.1,1.1,0,0,1-.692.144c-.375,0-.606.043-.692.144a1.177,1.177,0,0,1-.62.173,7.409,7.409,0,0,1-1.111-.029,2.433,2.433,0,0,1-1.039-.418c-.144-.231-.274-.274-.418-.144a.206.206,0,0,1-.317-.029.345.345,0,0,1-.029-.447c.043-.144-.1-.159-.418-.072-.188.144-.3.087-.346-.144,0-.188-.072-.2-.2-.072-.087.087-.2.072-.317-.072a.873.873,0,0,1-.173-.563c0-.144-.087-.188-.274-.144-.144.043-.3-.043-.49-.274a.918.918,0,0,1-.2-.317c-.043-.115-.115-.173-.2-.173a.527.527,0,0,1-.144-.418c0-.144-.043-.2-.144-.2s-.144-.144-.144-.418c0-.317-.072-.447-.216-.346-.087.043-.188,0-.274-.173a.652.652,0,0,1-.072-.519c0-.144-.029-.216-.072-.216-.087,0-.188-.2-.274-.62a2.607,2.607,0,0,1-.2-.62,2.409,2.409,0,0,0-.2-.62c-.043-.188-.087-.447-.144-.765a6.779,6.779,0,0,1-.072-.909,4.846,4.846,0,0,1-.072-.736.69.69,0,0,0-.072-.389v-.938a4.355,4.355,0,0,1,.029-.62.937.937,0,0,1,.1-.389Zm5.222-4.313a1.37,1.37,0,0,0,.245-.144.447.447,0,0,1,.245-.072c.188,0,.274-.043.274-.144s.159-.2.49-.346a5.375,5.375,0,0,0,.49-.346,5.373,5.373,0,0,1,.49-.346c.274-.274.462-.418.563-.418.043,0,.072-.043.072-.144-.043-.043,0-.144.144-.274a.634.634,0,0,0,.418-.418,6.507,6.507,0,0,1,.765-1.255,2.384,2.384,0,0,0,.447-1.5c-.029-.534-.216-.793-.591-.793a4.444,4.444,0,0,0-1.111.2q-.692.216-.692.346h-.072a.49.49,0,0,1-.2.072c-.144,0-.375.2-.692.62a2.043,2.043,0,0,1-.346.519q-.216.238-.346.389l-.2.2a.6.6,0,0,1-.072.144,3.52,3.52,0,0,1-.173.447c-.072.159-.13.245-.173.245-.1,0-.26.26-.49.765a3.132,3.132,0,0,0-.346,1.111,1.861,1.861,0,0,0,.274,1.212c.188.216.39.173.62-.1Zm1.039,14.05.072-.144a.129.129,0,0,0-.144.144l-.072.144A.129.129,0,0,0,160.7,39.316Zm.49-.2.072.072.072-.072s-.029-.072-.072-.072A.068.068,0,0,0,161.193,39.114Zm1.673-.072.072-.072s-.029-.072-.072-.072a.068.068,0,0,0-.072.072Zm1.111-13.848s.115-.13.2-.245a1.267,1.267,0,0,1,.418-.317c.317-.231.49-.418.49-.563a1.1,1.1,0,0,0,.144-.216,1.681,1.681,0,0,1,.346-.49c.317-.418.447-.678.346-.765-.043-.144-.087-.2-.1-.173s-.13.2-.317.519a1.688,1.688,0,0,1-.692.909c-.274.188-.375.346-.274.49,0,.144-.029.2-.072.2a2.448,2.448,0,0,0-.764.563c-.418.375-.62.606-.62.692s.144.029.418-.173a2.263,2.263,0,0,0,.49-.447Z" transform="translate(68.407 6.955)"/>
        <path id="Path_39605" data-name="Path 39605" d="M168.145,31.334c.188-.188.188-.274,0-.274-.1,0-.159-.087-.173-.245a.411.411,0,0,1,.1-.389c.144-.144.144-.231,0-.274-.087-.087-.115-.274-.072-.563a1.634,1.634,0,0,1,.2-.62.7.7,0,0,0,.1-.389c.029-.216.058-.447.1-.736v-.765a.743.743,0,0,1,.072-.418c0-.144.087-.2.274-.2.144-.087.159-.231.072-.418a1.347,1.347,0,0,1-.072-1.01,2.382,2.382,0,0,1,.418-1.082.654.654,0,0,0,.2-.49,1.484,1.484,0,0,1,.274-.563,1.7,1.7,0,0,0,.2-.519,5.935,5.935,0,0,0,.072-1.082,16.8,16.8,0,0,1,.072-1.8,1.337,1.337,0,0,1,.2-.692c.087-.087.072-.2-.072-.346a.577.577,0,0,1,.072-.49.551.551,0,0,0,.072-.346c-.043-.144.043-.274.274-.418.231-.231.3-.375.216-.418-.043-.144.029-.26.245-.346a1.161,1.161,0,0,1,.664-.072,1.66,1.66,0,0,1,.664.447c.26.26.317.4.173.447-.087,0-.043.043.144.144a.507.507,0,0,1,.2.563q-.065.346-.346.346c-.087,0-.115.115-.072.346,0,.231-.029.346-.072.346-.087,0-.159.144-.2.447a2.071,2.071,0,0,0,0,.736c.087.188.173.274.245.274s.1-.087.1-.274c0-.087.144-.288.447-.591a5.448,5.448,0,0,1,1.01-.793c.274-.188.418-.317.418-.418,0-.144.072-.216.2-.216.087,0,.144-.072.144-.2,0-.043.072-.144.2-.274.144,0,.462-.2.966-.62a2.057,2.057,0,0,1,.664-.418,1.649,1.649,0,0,1,.375-.072c.274.087.418.072.418-.072a1.027,1.027,0,0,1,.447-.317,1.583,1.583,0,0,1,.591-.173.551.551,0,0,0,.346-.072,2.985,2.985,0,0,1,1.428-.1,2.071,2.071,0,0,1,1.212.447,1.186,1.186,0,0,1,.2,1.183c-.144.462-.389.692-.765.692-.144,0-.187.144-.144.418.087.563-.606,1.024-2.092,1.385-1.3.332-2.149.534-2.539.62a2.343,2.343,0,0,0-.664.2c0,.144-.115.2-.346.2-.231.087-.346.188-.346.274a.985.985,0,0,1-.173.317,6.143,6.143,0,0,0-.375.591c-.188.231-.332.447-.447.62s-.159.3-.1.346c0,.188-.043.3-.144.346-.144.043-.2.159-.2.346a2.341,2.341,0,0,1-.274.49c-.231.231-.3.389-.2.49a.744.744,0,0,1-.072.418v.346c.087,0,.043.043-.144.144s-.231.216-.144.346a1.3,1.3,0,0,1-.072.49,5.049,5.049,0,0,0-.2,2.092c-.043.5-.087.966-.1,1.356s-.058.591-.1.591-.029.2.072.62c.231.418.26.678.072.765-.087.087-.087.26,0,.49a1.747,1.747,0,0,1,.072.62,1.043,1.043,0,0,0,.072.62.939.939,0,0,1-.144.837.89.89,0,0,0-.144.62c.144.043.159.159.072.346-.1.231-.115.375-.072.418.043.231-.087.418-.375.563a.69.69,0,0,1-.793-.072,8.2,8.2,0,0,0-.909-.418c-.144,0-.2-.144-.2-.418,0-.188,0-.274-.029-.274s-.1.087-.245.274a.445.445,0,0,1-.563.144.863.863,0,0,1-.49-.49c0-.043-.072-.144-.2-.274-.1-.043-.159-.2-.173-.49s0-.418.1-.418.072-.087-.072-.274a2.6,2.6,0,0,1-.2-1.255,1.765,1.765,0,0,1,.346-1.255Z" transform="translate(74.336 7.017)"/>
        <path id="Path_39606" data-name="Path 39606" d="M178.765,21.222a2.243,2.243,0,0,0,.418-.692.315.315,0,0,1,.216-.346c.188-.043.274-.2.274-.49s.087-.447.274-.49q.346-.13.346-.346a.632.632,0,0,1,.2-.346l.274-.274a1.113,1.113,0,0,0,.2-.274,1.176,1.176,0,0,1,.62-.49c.043,0,.087,0,.1-.029a.122.122,0,0,1,.1-.029l.072-.072c0-.087.087-.2.245-.346a.683.683,0,0,1,.447-.2,2.243,2.243,0,0,0,.692-.418c.462-.462.793-.563.981-.274.087.087.173.115.245.072s.1-.159.1-.346c0-.087.115-.188.346-.274a.771.771,0,0,1,.62,0,.371.371,0,0,0,.274-.144c0-.188.087-.231.274-.144.144,0,.2-.029.2-.072.087-.144.3-.173.62-.1a3.4,3.4,0,0,1,.966.389,3.465,3.465,0,0,1,.837.664.782.782,0,0,1,.274.664c-.1.231-.043.3.144.2.144-.043.216.043.216.274q-.151.411,0,.563c.188.375.043.563-.418.563-.187,0-.274.043-.274.144,0,.144-.087.188-.245.144a1.545,1.545,0,0,1-.591-.418c-.563-.5-.966-.577-1.255-.2a1.424,1.424,0,0,1-.563.274c-.274.087-.418.188-.418.274a.191.191,0,0,1-.216.216.506.506,0,0,0-.49.274c-.188.188-.332.274-.418.274s-.231.087-.418.274a.82.82,0,0,1-.274.274,1.807,1.807,0,0,0-.346.274c-.317.188-.462.332-.418.418a2.131,2.131,0,0,1-.346.692,2.893,2.893,0,0,1-.346.447q-.216.238-.346.389a2.965,2.965,0,0,0-.447,1.7,2.9,2.9,0,0,0,.389,1.774q.346.5.346.346c0-.144.087-.072.274.2.188.188.447.4.765.664a1.649,1.649,0,0,0,.62.389c.043,0,.188.115.418.346.144.231.274.346.418.346a.87.87,0,0,1,.418.245,4.955,4.955,0,0,1,.591.62q.3.389.563.736a3.007,3.007,0,0,1,.317.563,3.731,3.731,0,0,1,.1,1.183,5.841,5.841,0,0,1-.2,1.284,4.729,4.729,0,0,1-.418,1.01c-.159.274-.332.418-.519.418-.043,0-.115.144-.216.418q-.216.346-.346.346l-.2.346q-.13.346-.346.346c-.144,0-.346.188-.62.563-.332.332-.5.49-.563.49-.1,0-.274.144-.563.418-.606.5-1,.822-1.183.938a2.206,2.206,0,0,1-.49.245c-.188,0-.274.072-.274.216a.23.23,0,0,1-.144.072.2.2,0,0,1-.144.072.49.49,0,0,0-.2.072c-.332.144-.49.231-.49.274s-.087.087-.274.1a3.963,3.963,0,0,1-.591.029,4.465,4.465,0,0,1-.62-.029.847.847,0,0,1-.375-.1.948.948,0,0,1-.144-.418.349.349,0,0,0-.144-.274c-.144-.043-.159-.159-.072-.346a.9.9,0,0,1,.49-.418.918.918,0,0,0,.563-.418c.087-.188.188-.274.274-.274.188,0,.5-.231.981-.692q.627-.563,1.428-1.255c.534-.462.909-.808,1.154-1.039.274-.274.375-.447.274-.49,0-.144.115-.317.346-.563s.317-.375.274-.418a.269.269,0,0,1,.072-.144l.216-.2c.274-.188.375-.317.274-.418a.3.3,0,0,1,.072-.346.172.172,0,0,0,.1-.216.183.183,0,0,0-.173-.144c-.087,0-.231-.087-.418-.274-.144-.231-.274-.317-.418-.274-.1,0-.231-.087-.418-.274-.188-.231-.346-.317-.49-.274s-.346-.072-.62-.346a1.346,1.346,0,0,0-.966-.418,2.206,2.206,0,0,0-.418-.1.355.355,0,0,1-.274-.173l-.216-.216c0,.087-.1.072-.317-.072s-.476-.317-.793-.563-.49-.418-.49-.563-.1-.2-.274-.2a.391.391,0,0,1-.346-.216c0-.188-.072-.274-.2-.274-.043,0-.072-.2-.072-.62,0-.375-.043-.606-.144-.692-.144-.087-.173-.274-.1-.563a8.465,8.465,0,0,1,.346-1.01,9.658,9.658,0,0,1,.62-1.212,8.813,8.813,0,0,1,.793-1.111Z" transform="translate(78.387 6.686)"/>
      </g>
    </g>
  </g>
</svg>
