<svg xmlns="http://www.w3.org/2000/svg" xmlns:xlink="http://www.w3.org/1999/xlink" width="581" height="314" viewBox="0 0 581 314">
  <defs>
    <linearGradient id="linear-gradient" x1="0.5" x2="0.5" y2="1" gradientUnits="objectBoundingBox">
      <stop offset="0" stop-color="#707070"/>
      <stop offset="1" stop-color="#383838" stop-opacity="0"/>
    </linearGradient>
    <clipPath id="clip-Snippit_Web_Materials_Marketpalce_st54.335xd_assets-1">
      <rect width="581" height="314"/>
    </clipPath>
  </defs>
  <g id="Snippit_Web_Materials_Marketpalce_st54.335xd_assets-1" data-name="Snippit_Web Materials_Marketpalce_st54.335xd_assets-1" clip-path="url(#clip-Snippit_Web_Materials_Marketpalce_st54.335xd_assets-1)">
    <path id="Path_39521" data-name="Path 39521" d="M543.554,122.986h5.418a1.165,1.165,0,1,0,0-2.329h-5.418c-54.334,0-83.858-25.367-94.03-36.273q-.646-.692-1.269-1.391.7-.636,1.375-1.286a50.162,50.162,0,0,0,7.294-8.8,38.049,38.049,0,0,0,4.278-8.854,26.353,26.353,0,0,0,1.372-8.281c-.037-4.965-1.537-9.213-4.338-12.283a13.647,13.647,0,0,0-9.713-4.521,13.787,13.787,0,0,0-10.313,4.219c-3.111,3.152-4.961,7.755-5.348,13.312-.256,3.661.931,8.267,3.432,13.319a65.973,65.973,0,0,0,8.675,12.939,62.748,62.748,0,0,1-7.014,5.07c-11.478,7.167-32.2,15.21-65.715,12.83C338.61,98.269,299.319,86,255.461,64.179,233.193,53.1,211.508,42.412,191.02,33.39c-22.593-9.949-41.7-17.012-60.121-22.229A286.749,286.749,0,0,0,69.418.5a286.076,286.076,0,0,0-33-.05A331.462,331.462,0,0,0,.975,4.416a1.165,1.165,0,0,0,.38,2.3A309.818,309.818,0,0,1,52,2.415c74.068,0,132.175,28.906,202.423,63.849,23.049,11.466,45.115,20.409,65.584,26.581,18.529,5.587,36.048,9,52.069,10.135a140.059,140.059,0,0,0,39.444-2.335A86.777,86.777,0,0,0,439.19,89.8a65.32,65.32,0,0,0,7.308-5.282q.649.729,1.323,1.451c6.718,7.2,18.569,17.462,36.877,25.427a136.09,136.09,0,0,0,26.7,8.4A159.243,159.243,0,0,0,543.554,122.986ZM448.1,41.292q.176,0,.352.005c5.63.176,11.723,4.786,11.794,14.493.035,4.9-1.839,10.528-5.278,15.855a48.771,48.771,0,0,1-8.241,9.582,63.574,63.574,0,0,1-8.344-12.442c-2.285-4.615-3.42-8.92-3.2-12.123C435.93,46,442.148,41.292,448.1,41.292Z" transform="translate(43.709 48.302) rotate(11)" fill="url(#linear-gradient)"/>
  </g>
</svg>
