<svg xmlns="http://www.w3.org/2000/svg" xmlns:xlink="http://www.w3.org/1999/xlink" width="289" height="314" viewBox="0 0 289 314">
  <defs>
    <linearGradient id="linear-gradient" x1="0.5" x2="0.5" y2="1" gradientUnits="objectBoundingBox">
      <stop offset="0" stop-color="#707070"/>
      <stop offset="1" stop-color="#383838" stop-opacity="0"/>
    </linearGradient>
    <clipPath id="clip-Snippit_Web_Materials_Marketpalce_st54.335xd_assets-2">
      <rect width="289" height="314"/>
    </clipPath>
  </defs>
  <g id="Snippit_Web_Materials_Marketpalce_st54.335xd_assets-2" data-name="Snippit_Web Materials_Marketpalce_st54.335xd_assets-2" clip-path="url(#clip-Snippit_Web_Materials_Marketpalce_st54.335xd_assets-2)">
    <path id="Path_39520" data-name="Path 39520" d="M1.023,237.329h17.3c29.53,0,56.874-3.786,81.272-11.253,22.488-6.882,42.277-16.808,58.817-29.5a144.362,144.362,0,0,0,20.953-19.593,125.864,125.864,0,0,0,15.293-21.749,112.124,112.124,0,0,0,9.616-23.1A102.174,102.174,0,0,0,208.2,108.5a112.294,112.294,0,0,0-3.686-34.815,92.612,92.612,0,0,0-12.283-27.2A119.5,119.5,0,0,0,212.575,32.9,192.507,192.507,0,0,0,242.39,1.65,1.023,1.023,0,1,0,240.772.4c-16.117,20.809-32.806,35.711-49.707,44.4a78.741,78.741,0,0,0-7.213-8.8,68.474,68.474,0,0,0-9.262-8.162,56.014,56.014,0,0,0-9.768-5.741,43.519,43.519,0,0,0-9.87-3.179c-6.153-1.16-11.809-.552-16.359,1.759a16.256,16.256,0,0,0-8.407,9.648,15.217,15.217,0,0,0,1.366,11.9c2.276,4.118,6.357,7.541,11.8,9.9a37.575,37.575,0,0,0,8.328,2.468,47.59,47.59,0,0,0,9.868.674,67.389,67.389,0,0,0,23.582-5.455q2.624-1.09,5.259-2.389l.113.167c7.868,11.716,16.97,31.778,15.652,60.823-1.46,32.227-19.315,63.769-48.987,86.539-34.382,26.385-82.393,40.331-138.843,40.331H1.023a1.023,1.023,0,0,0,0,2.046Zm188.19-191.6q-2.43,1.184-4.866,2.2c-8.684,3.608-25.451,8.708-40.18,2.325-11.7-5.067-13.787-13.576-12.024-19.324A14.23,14.23,0,0,1,139.52,22.5c4.143-2.1,9.348-2.648,15.053-1.573C166.926,23.257,179.743,32.466,189.213,45.726Z" transform="matrix(0.995, 0.105, -0.105, 0.995, -4.572, 27.219)" fill="url(#linear-gradient)"/>
  </g>
</svg>
